<?xml version="1.0" encoding="UTF-8" standalone="no"?>
<!-- Generator: Adobe Illustrator 15.0.0, SVG Export Plug-In . SVG Version: 6.00 Build 0)  -->

<svg
   version="1.1"
   id="svg5074"
   sodipodi:version="0.32"
   inkscape:version="1.1.2 (b8e25be833, 2022-02-05)"
   sodipodi:docname="Blank_Bangkok_Map.svg"
   inkscape:output_extension="org.inkscape.output.svg.inkscape"
   inkscape:export-filename="E:\wikimaps\Bangkok location map.png"
   inkscape:export-xdpi="300"
   inkscape:export-ydpi="300"
   x="0px"
   y="0px"
   width="871.213px"
   height="691.958px"
   viewBox="0 0 871.213 691.958"
   enable-background="new 0 0 871.213 691.958"
   xml:space="preserve"
   xmlns:inkscape="http://www.inkscape.org/namespaces/inkscape"
   xmlns:sodipodi="http://sodipodi.sourceforge.net/DTD/sodipodi-0.dtd"
   xmlns="http://www.w3.org/2000/svg"
   xmlns:svg="http://www.w3.org/2000/svg"><defs
   id="defs59" />
<sodipodi:namedview
   id="base"
   pagecolor="#ffffff"
   showguides="true"
   bordercolor="#666666"
   borderopacity="1.0"
   inkscape:pageopacity="0.0"
   inkscape:pageshadow="2"
   inkscape:zoom="0.70710678"
   inkscape:cx="146.3711"
   inkscape:cy="380.42345"
   inkscape:document-units="px"
   inkscape:current-layer="g41"
   showgrid="false"
   inkscape:window-width="1366"
   inkscape:window-height="705"
   inkscape:window-x="-8"
   inkscape:window-y="-8"
   inkscape:guide-bbox="true"
   inkscape:pagecheckerboard="true"
   inkscape:window-maximized="1">
	</sodipodi:namedview>
<path
   id="path14181"
   fill="#CECECE"
   d="M345.586,19.865c0,0,5.328-3.36,8.872-4.373c3.544-1.013,3.798-0.253,3.798-0.253  s7.848,2.784,10.632,3.544c2.784,0.759,3.038,0.759,6.075,1.267c3.037,0.506,4.051,0.759,5.821,1.519  c1.772,0.76,12.403,6.075,12.403,6.075l5.062,2.025l-1.52-13.67l6.329-0.506c0,0,4.559-0.634,6.837-0.128  c2.277,0.506,6.325,2.153,7.845,2.659s2.025,2.278,4.05,3.544c2.025,1.266,2.14,7.211,2.14,7.211l0.942,13.799l-0.074-0.547  c0,0,3.312,10.84,2.409,13.249c-0.902,2.409-6.624,10.839-6.624,10.839l-18.065,28.305l-0.302-0.301l-11.142,8.129l-6.323,4.217  l-2.474,2.508l0.667-0.1l-14.348-3.519l5.953-12.647c0,0-9.974-6.115-11.178-6.115s-6.021-1.205-8.731-3.012  s-9.938-4.215-10.841-6.323c-0.902-2.108-4.215-4.817-6.322-5.118c-2.107-0.303-4.518-0.604-4.518-0.604l0.551,0.637l12.289-53.241" />
<path
   id="path14123"
   fill="#CECECE"
   d="M508.79,126.668c0,0-1.436-1.729-1.862-1.965c-1.77-0.975-3.012-4.517-3.012-4.517  l-7.228,0.603l-2.71-2.71l-3.682,2.501l-2.039-2.803c0,0,0.902,2.409-2.711,0.903c-3.612-1.506-4.517-0.602-4.517-0.602  s-1.473,4.634-3.58,4.032s-6.355-2.828-6.355-2.828s-1.808-0.301-1.808-1.505s0-2.108,0-2.108h-18.669l1.808-3.914  c0,0-2.408-1.205-4.518-1.205c-2.106,0-3.312,1.205-5.42,1.505c-2.107,0.301-1.505,1.205-3.613,0.301  c-2.106-0.903-3.914-2.108-5.119-1.205c-1.203,0.903-5.721,1.807-5.721,1.807l-2.51,2.239c0,0-5.62-1.336-8.33-2.239  s-2.71-2.409-5.721-2.409c-3.012,0-4.518-0.602-4.518-0.602s-2.408-0.301-2.107-2.409c0.302-2.107,3.312-5.721,3.312-5.721  l-3.716-7.433l-0.116-0.226l17.984-28.175c0,0,5.721-8.431,6.624-10.84c0.902-2.409-2.108-12.228-2.108-12.228l-0.176-0.474  l20.155,0.506l-0.253,3.038l3.038,2.278l24.554-0.253l0.507,1.013l21.263,0.253l3.291-1.266l17.214,0.253  c0,0-0.507,1.519-1.014,4.81c-0.506,3.291-0.253,1.267-1.012,4.051c-0.76,2.784-1.061,2.486-1.148,3.785l0,0v5.677  c0,0,1.204,0.301-0.902,2.107c-2.108,1.807-3.915,1.506-4.817,3.011c-0.904,1.506,0,3.312,1.204,3.915  c1.204,0.602,3.312,4.817,3.613,6.022c0.301,1.205,3.612,6.323,3.612,6.323s3.312,4.215,3.613,6.323s-1.204,6.625-1.204,6.625  l0.301,8.732l-0.902,2.71l-2.108,1.205c0,0,1.808,5.721,0,6.925c-1.807,1.204-1.807,3.011-3.312,4.215  C510.84,125.907,508.79,126.668,508.79,126.668" />
<path
   id="path14181_1_"
   fill="#CECECE"
   d="M371.498,150.883c0,0,0.303-22.885,1.205-25.896c0.903-3.011,0.903-4.818,2.408-6.926  c1.506-2.107,7.227-7.829,7.227-7.829h0.303l-15.959-3.915l6.322-13.249c0,0-8.731-5.119-9.937-5.119s-6.022-1.205-8.732-3.011  s-9.937-4.215-10.84-6.323c-0.903-2.107-4.215-4.818-6.323-5.119c-2.106-0.302-4.517-0.603-4.517-0.603l0.61,0.376l-7.72,33.44  l-13.064,56.517c0,0,13.249-4.517,15.355-5.119c2.107-0.603,11.142-3.312,15.356-3.915s9.334-1.505,11.743-1.807  c2.409-0.302,15.056-1.205,15.056-1.205" />
<path
   id="path14135"
   fill="#CECECE"
   d="M439.67,173.381l-10.474-0.602l-4.216-3.312c0,0-5.721-4.216-7.228-5.119  c-1.505-0.903-9.334-0.602-10.84-0.301c-1.505,0.301-6.323,0.602-7.828,0.602c-1.506,0-3.012,2.409-4.518,3.312  c-1.505,0.903-2.709,0-5.721,0s-3.312,0.903-5.722,1.205c-2.408,0.301-5.721,2.108-5.721,2.108l-0.302,0.301  c0,0-2.71-9.334-3.011-11.442c-0.302-2.108,0.301-4.818-0.302-6.022c-0.603-1.205-0.903-4.15-0.903-4.15v0.537  c0,0,0.302-22.885,1.205-25.896c0.902-3.011,0.902-4.818,2.407-6.926c1.507-2.107,7.228-7.829,7.228-7.829l-0.365,0.099l2.474-2.508  l6.323-4.216l11.141-8.13h0.303l3.428,6.855c0,0-2.479,3.611-2.781,5.719c-0.301,2.108,2.063,3.384,2.063,3.384  s1.505,0.602,4.517,0.602c3.011,0,3.011,1.505,5.721,2.409c2.711,0.904,9.033,2.409,9.033,2.409l2.433-2.542  c0,0,3.892-0.771,5.096-1.673c1.205-0.903,3.012,0.301,5.119,1.205c2.107,0.903,1.506,0,3.612-0.301  c2.108-0.301,3.312-1.505,5.421-1.505c2.107,0,3.854,0.91,3.854,0.91l-1.838,3.875l19.361,0.334c0,0,0,0.903,0,2.108  c0,1.205,1.807,1.505,1.807,1.505s4.817,2.409,6.926,3.011c2.107,0.602,4.546-4.461,4.546-4.461s-0.632-0.657,2.981,0.848  c3.613,1.505,3.754-0.095,3.754-0.095l1.365,2.504l3.727-2.596l2.295,2.295l7.229-0.603c0,0,1.204,3.613,3.011,4.517  c1.807,0.904,2.106,2.71,2.106,2.71s0,3.012,1.205,4.517c1.204,1.506-1.205,5.722-1.205,7.528s-2.408,5.119-3.011,6.323  c-0.603,1.204-3.051,2.997-5.157,4.202c-2.107,1.204-4.461,1.971-4.461,1.971l-1.698-0.211l-4.341-0.541  c0,0-3.012,0.903-4.216,1.204c-1.204,0.301-4.216,3.312-4.216,3.312l-3.312-3.011c0,0-1.204,2.108-1.505,3.613  c-0.303,1.505-0.903,6.323-0.903,6.323s-3.915,1.807-5.722,2.108c-1.808,0.301-9.938,1.204-9.938,1.204s0.302-1.204-4.216-0.903  c-4.517,0.301-5.42-0.301-8.129,1.205c-2.711,1.505-6.927,4.517-6.927,4.517l-0.301,1.205" />
<path
   id="path14119"
   fill="#CECECE"
   d="M658.633,47.405c-4.354,0.797-8.597,1.455-11.555,1.64  c-8.101,0.506-28.723,1.779-33.531,3.298c-4.811,1.519-11.267,2.656-15.062,2.91c-3.796,0.254-29.878,2.652-30.891,2.652  s-1.771,1.266-7.594,1.772c-5.822,0.506-4.304,1.771-9.365,1.519c-4.265-0.213-28.555-0.121-35.979-0.069l-0.103,5.734  c0,0,1.203,0.301-0.903,2.107c-2.108,1.807-3.915,1.506-4.817,3.011c-0.904,1.506,0,3.312,1.204,3.915  c1.204,0.602,3.312,4.817,3.613,6.022c0.301,1.205,3.612,6.323,3.612,6.323s3.312,4.215,3.613,6.323s-1.204,6.625-1.204,6.625  l0.302,8.732l-0.903,2.71l-2.108,1.205c0,0,1.808,5.721,0,6.925c-1.807,1.204-1.807,3.011-3.312,4.215  c-1.506,1.205-3.915,2.108-3.915,2.108l0.195,2.586c0,0,0.418,1.912,1.621,3.417c0.584,1.085-1.215,4.837-1.215,6.644  s-2.408,5.119-3.011,6.323c-0.603,1.204-3.063,3.745-5.171,4.949s-2.5,1.625-2.5,1.625l-1.17,0.693l-0.83,1.244l-2.312,1  l-2.688,1.062l-2.492,1.169c0,0,3.312,0.903,4.817,1.204c1.506,0.301,3.913,0.903,5.721,1.506c1.807,0.602,4.817,2.107,6.022,2.409  c1.203,0.302,3.914,2.71,3.914,2.71l2.709,4.818v3.914l1.808,3.915l0.603,5.119l5.119,5.721l4.216,8.13l2.107,6.625v7.228  c0,0,10.539-5.721,11.743-6.022c1.203-0.301,1.203-3.613,1.203-3.613l12.347,0.903l-0.301-12.346h7.068l-0.125-8.429l2.625-0.085  l1.584-0.124l0.25,8.625l8.582,0.012l-0.25-6.388l1.645-2.042c0,0,4.816-2.107,6.925-2.71c2.107-0.602,5.119,0.301,6.322,0.603  c1.205,0.301,6.022,3.312,6.022,3.312l1.505,3.613l0.303,5.42l1.203,6.022h2.71l1.507,3.312l68.953-39.445l-13.551-32.52  c0,0-1.505-6.022-2.408-8.431c-0.902-2.409,1.204-2.108,2.408-2.71c1.205-0.602,2.409-1.807,3.613-3.011  c1.205-1.204,0.603-2.409,1.205-3.914c0.602-1.506,1.506-0.603,2.408-2.409c0.903-1.807,3.012-4.215,3.012-4.215l-6.022-2.409  V47.289" />
<path
   id="path14091"
   fill="#CECECE"
   d="M661.477,47.104v54.802l6.021,2.409c0,0-2.106,2.408-3.012,4.215  c-0.902,1.807-1.807,0.903-2.408,2.409c-0.603,1.505,0,2.71-1.205,3.914c-1.204,1.204-2.408,2.409-3.613,3.011  c-1.203,0.603-2.961,1.317-2.058,3.726c0.903,2.408,2.058,7.416,2.058,7.416l13.109,32.244l8.271-3.639c0,0,2.71-1.506,3.915-1.204  c1.203,0.301,1.203,2.408,0.902,3.613c-0.302,1.204-2.711,3.312-3.012,4.817c-0.301,1.505-0.903,0.603-0.602,3.613  c0.301,3.011,3.914,5.721,3.312,8.431s-2.71,12.646-2.71,12.646l-0.602,5.119c0,0-0.445,2.99-2.252,3.894  c-1.808,0.904-2.787,0.743-3.389,3.152c-0.603,2.408-1.587,5-1.286,7.408c0.302,2.409,0.603,8.13,0.603,8.13  s-0.603,1.204,1.807,2.71s7.229,1.506,7.229,1.506l-4.518,5.42c0,0-4.518,1.807-6.324,3.312c-1.807,1.505-4.215,5.118-4.215,5.118  l-2.106,4.817l0.301,1.658l0.602,1.654c0,0-0.301,4.216-0.602,6.022c-0.301,1.806-2.71,2.107-2.71,2.107s-0.303,1.506,0.603,3.312  c0.902,1.807,6.925,2.107,11.142,2.711c4.215,0.603,8.431,0.902,8.431,0.902s4.517-1.807,6.625-2.709  c2.106-0.904,2.408-1.205,2.408-1.205s1.807,1.506,3.612,2.107c1.808,0.604,4.217,2.41,6.625,3.012  c2.408,0.602,0.903,1.506,0.903,2.709c0,1.205,1.505,3.312,3.312,3.916c1.807,0.602,6.021,5.721,6.021,5.721s1.205,3.613,2.409,5.42  c1.204,1.807,3.613,0.301,6.925,0c3.312-0.301,2.711,0,4.216-2.408c1.506-2.41,2.108-1.807,2.108-1.807s23.787,0,25.896,0  c2.107,0,5.118,4.215,6.625,5.721c1.504,1.506,0.301,4.516,0.301,5.721s3.312,6.322,3.312,6.322s-1.205,5.119,0,8.432  c1.204,3.312,7.228,12.646,7.228,12.646l4.816,7.227l4.217,0.602l-0.442-0.785l35.284-57.502c0,0,1.266-2.531,2.215-4.43  s3.797-8.859,7.277-11.707c3.479-2.848,5.379-4.43,7.909-5.379c2.531-0.949,8.544-4.746,11.075-6.012s4.113-1.898,5.379-3.48  c1.267-1.582,14.557-18.353,14.557-18.353l-43.033-33.856l6.012-12.657l-7.6-1.319c0,0-4.997-0.357-4.997-4.154  s-1.009-3.703,0.573-6.867c1.581-3.164,3.163-5.062,3.163-5.062l0.634-3.48c0,0,0.633-30.692,1.266-36.704  c0.633-6.013,4.746-35.438,4.746-35.438l4.681-54.919l-0.819,0.432c0,0-6.328-0.759-11.897-0.506  c-5.568,0.253-22.902,2.283-24.168,2.536s-64.918,12.71-70.484,14.096c-5.21,1.297-40.773,8.428-44.064,9.187" />
<path
   id="path14097"
   fill="#CECECE"
   d="M664.624,240.39l1.552-3.547c0,0,2.111-5.461,3.919-6.966  c1.807-1.505,7.125-3.417,7.125-3.417l3.5-4.125c0,0-4.425,0.006-6.834-1.5c-2.408-1.505-1.688-2.059-1.688-2.059  s-0.301-5.721-0.602-8.13s1.203-6.925,1.807-9.334c0.602-2.409,1.506-3.011,3.312-3.915c1.806-0.904,1.807-1.204,1.807-1.204  l0.602-5.119c0,0,2.108-9.937,2.711-12.646c0.603-2.71-3.012-5.42-3.312-8.431c-0.302-3.011,0.021-2.492,0.322-3.997  c0.301-1.506,2.833-4.337,3.135-5.542c0.301-1.205,0.457-2.205-0.747-2.506c-1.205-0.301-3.915,1.205-3.915,1.205l-8.13,3.982  l0.302-0.068l-69.936,39.596l-1.407-3.583l-3.052-0.417l-1.333-5.542l-0.291-6.459l-1.126-2.833c0,0-3.854-2.696-5.06-2.997  c-1.204-0.301-4.215-1.205-6.323-0.603c-2.106,0.603-6.925,2.71-6.925,2.71l-1.109,1.848l0.206,6.583l-10.288-0.04l-0.25-8.417  l-1.001-0.001l-1.459,0.023l0.051,8.435h-6.717l0.041,12.334l-12.896-0.892c0,0,0,3.312-1.203,3.613  c-1.205,0.301-12.045,6.021-12.045,6.021s0,0.604,1.506,3.011c1.506,2.409,3.312,3.312,4.816,3.915  c1.506,0.602,1.205,1.204,1.807,3.011c0.604,1.807-1.203,2.409-2.106,3.915c-0.903,1.506,1.205,3.312,1.205,3.312  s4.215,5.721,6.021,6.926c1.808,1.204,6.927,11.743,6.927,11.743s3.612,6.925,5.118,9.938c1.506,3.011,1.808,6.624,1.808,6.624  h0.602c0,0,4.216-0.903,6.022-0.603c1.806,0.301,1.204,1.205,2.71,2.108c1.506,0.903,3.011,1.204,4.817,2.107  c1.806,0.903,6.625-0.602,8.13,0c1.506,0.603,3.612,0,4.817-0.301c1.204-0.301,1.967-3.093,1.967-3.093l3.25,0.062l-0.007,8.781  l9.243,0.271l0.301-9.635h12.646l2.71,3.011c0,0,1.807,0.903,4.216,0c2.409-0.903,1.204-3.613,1.204-3.613s4.517-3.613,5.722-4.517  c1.204-0.903,4.518-0.602,4.518-0.602l8.73-0.903c0,0,3.915,0.602,5.723,0.301c1.807-0.301,1.807-7.528,1.807-7.528  s3.312-13.249,4.817-14.754c1.506-1.505,3.913-1.505,6.926-1.204c3.011,0.301,3.914,4.517,3.914,4.517l5.754,2.336" />
<path
   id="path14101"
   fill="#CECECE"
   d="M664.217,242.251l-5.938-2.562c0,0-0.314-3.699-3.326-4s-4.229-0.193-5.736,1.312  c-1.506,1.506-4,13.875-4,13.875s-0.942,8.324-2.75,8.625c-1.807,0.301-7.5-0.062-7.5-0.062l-7.75,0.5c0,0-2.982,0.284-4.188,1.188  c-1.205,0.903-4.114,3.695-4.114,3.695s0.086,3.4-2.323,4.305c-2.408,0.902-5.938-0.438-5.938-0.438l-2.25-2.125l-10.52-0.354  l-0.355,9.291l-12.625-0.562l0.5-8.562l-0.958,0.063c0,0-0.463,2.824-1.667,3.125c-1.205,0.301-4.869,1.354-6.375,0.75  c-1.505-0.602-6.568,0.154-8.375-0.75c-1.807-0.902-4.244-1.721-5.75-2.625c-1.506-0.902-0.693-1.012-2.5-1.312s-3.875,0-3.875,0  l-1.173,0.487l0.959,5.774l-5.42,8.731l-9.033,13.551c0,0,4.517,0.602,4.817,1.807c0.302,1.203-0.301,4.816-0.301,4.816  l-0.604,12.948l-1.519,18.633l0.336,3.312l2.561,12.727l28.152,0.619l2.53,2.531l47.779-0.633l1.898,2.53l4.112-0.633l0.949-0.949  l21.517-1.582l99.988,38.921l1.582-7.343l-0.062,0.254l0.38-3.354l-8.543-4.112l33.062-53.877l0.442,0.785l-4.216-0.603  l-4.817-7.228c0,0-6.862-10.888-8.065-14.2c-1.205-3.312,0.156-7.962,0.156-7.962s-3.574-5.166-3.574-6.371  c0-1.203,1.165-4.163-0.34-5.669c-1.506-1.506-3.533-4.641-5.642-4.641c-2.107,0-25.896,0-25.896,0s-0.285-0.099-1.791,2.31  c-1.505,2.408-1.221,1.604-4.533,1.905c-3.312,0.302-5.721,1.807-6.925,0c-1.204-1.807-2.409-5.42-2.409-5.42  s-4.216-5.119-6.021-5.721c-1.806-0.603-3.945-3.561-3.945-4.764c0-1.205,0.741-2.168-1.667-2.771  c-2.409-0.602-3.421-1.499-5.228-2.101c-1.807-0.603-3.613-2.108-3.613-2.108s-0.301,0.301-2.408,1.205  c-2.107,0.903-6.625,2.71-6.625,2.71s-4.216-0.301-8.431-0.903c-4.216-0.603-10.771-1.184-11.673-2.991  c-0.904-1.807-1.062-5.75-1.062-5.75s2.949-0.256,3.25-2.062c0.302-1.806,0.188-5.062,0.188-5.062" />
<path
   id="path14179"
   fill="#CECECE"
   d="M375.814,172.948c0,0-2.71-9.334-3.011-11.442c-0.302-2.108,0.301-4.818-0.302-6.022  c-0.603-1.205-1.506-3.613-1.506-3.613l-0.902,0.301c0,0-12.646,0.903-15.057,1.205s-7.527,1.205-11.743,1.807  s-13.249,3.312-15.355,3.915c-2.107,0.602-15.658,5.119-15.658,5.119l-9.334,35.229c0,0-1.506,3.613,0,4.216  c1.506,0.602,3.613,0.602,4.818,0.602c1.204,0,5.42,0.301,6.624,2.108c1.203,1.807,1.505,3.011,0.603,4.517  c-0.903,1.505-11.744,26.498-11.744,26.498l34.628,3.914l6.926,0.603l-0.603-7.227l6.396,0.326l3.541-2.132l8.432-1.205l3.613-1.205  h9.032c0,0-1.204-6.925-1.505-8.732c-0.302-1.807,0.301-6.022,0.903-7.829c0.602-1.807,0.903-14.454,0.903-15.959  c0-1.506,0.603-9.636,0.603-9.636s0-6.925,0.603-9.937c-0.303-3.308-0.303-3.308-0.303-3.308" />
<path
   id="path14127"
   fill="#CECECE"
   d="M440.29,175.262l0.302-0.603l0.301-1.205c0,0,4.215-3.011,6.926-4.517  c2.709-1.505,3.613-0.903,8.129-1.205c4.518-0.301,3.612,0.154,3.612,0.154l0.466,1.938l-1.884,0.507l-0.688,4.626l1.506,1.807  l-0.602,10.238l11.441-3.312l1.514,2.767l-0.531,4.469l6.244,0.593v0.903v4.378c0,0-2.557,3.009-2.557,5.719  s2.557,8.873,2.557,8.873l2.41,7.527c0,0,0.902,1.807,3.01,2.71c2.108,0.903,1.18,5.327,1.18,5.327l3.338-0.509l2.408,5.721  c0,0,3.914,6.624,4.215,9.334c0.304,2.71,1.506,6.926,1.506,6.926s1.81,2.108,2.41,3.613c0.602,1.505-3.688,2.821-3.688,2.821  l1.883,5.911l-0.303,0.301l-14.453,9.334l-12.471,5.631l-1.982-2.62c0,0-1.203-3.312-2.106-6.022  c-0.902-2.71-4.818-6.926-4.818-6.926l-1.203-4.817c0,0-1.205,1.505-4.217-0.903c-3.01-2.409-5.42-5.42-6.021-7.227  c-0.601-1.807-1.506-4.216-1.205-5.721c0.304-1.505,0-9.937,0-9.937s0.604-1.807-1.504-3.613c-2.108-1.807-3.012-0.903-5.119-4.215  c-2.106-3.312-3.012-4.216-3.612-6.323c-0.604-2.108-1.507-3.011-1.507-4.518c0-1.506,0-5.119,0-5.119l-7.227-0.903" />
<path
   id="path14115"
   fill="#CECECE"
   d="M538.301,236.459c-1.807-1.205-5.06-6.802-5.06-6.802s-2.108-1.807-1.205-3.312  c0.903-1.505,2.71-2.108,2.107-3.915c-0.603-1.807-0.302-2.409-1.808-3.011c-1.505-0.603-3.312-1.506-4.816-3.915  c-1.505-2.409-1.13-2.09-1.13-2.09l-0.507-1.624l0.433-6.524l-2.107-6.625l-4.216-8.13l-5.119-5.721l-0.603-5.119l-1.808-3.915  v-3.914l-2.709-4.818c0,0-2.711-2.409-3.914-2.71c-1.205-0.301-4.217-1.807-6.022-2.409c-1.808-0.603-4.215-1.205-5.721-1.506  c-1.507-0.301-4.864-1.649-4.864-1.649l-0.161-1.522l3-2.062l5.036-1.39l-0.317-0.046l-6.03-0.439c0,0-2.983,0.824-4.188,1.125  s-4.938,4.25-4.938,4.25l-3.255-2.998c0,0-0.443,1.867-0.745,3.373c-0.302,1.505-0.688,6.125-0.688,6.125s-4.881,1.699-6.688,2  c-1.808,0.301-9.75,0.562-9.75,0.562l0.768,2.608l-2.409,0.301l-0.375,3.585l1.568,2.151l-0.531,9.062l11.083-2.751l1.807,2.71  l-0.301,4.517l5.721,0.602v0.903v6.323c0,0-2.106,1.505-2.106,4.215s2.106,8.432,2.106,8.432l2.409,7.527  c0,0,0.903,1.807,3.011,2.71c2.108,0.903,1.507,5.119,1.507,5.119l3.011-0.301l2.409,5.721c0,0,3.914,6.624,4.215,9.334  c0.302,2.71,1.506,6.926,1.506,6.926s2.409,3.613,3.011,5.119c0.604,1.505-3.914,2.71-3.914,2.71l1.506,4.517l39.578-22.082" />
<path
   id="path14143"
   fill="#CECECE"
   d="M377.878,178.61c-0.602,3.011-0.602,9.937-0.602,9.937s-0.603,8.13-0.603,9.636  c0,1.505-0.303,14.152-0.903,15.959c-0.604,1.807-1.205,6.021-0.903,7.828c0.301,1.807,1.505,8.731,1.505,8.731  s2.108-0.301,5.722,0.604c3.614,0.904,3.012,2.409,6.926,2.409c3.915,0,24.089,1.505,24.089,1.505l1.506-8.13l8.431-16.561  l3.312-0.301l0.046-1.263l0.397-1.837l11.929-32.06l-0.843-0.165l-8.819-0.507l-4.216-3.312c0,0-5.722-4.216-7.228-5.119  c-1.505-0.903-9.334-0.602-10.84-0.301c-1.505,0.301-6.323,0.602-7.828,0.602c-1.506,0-3.012,2.409-4.518,3.312  c-1.505,0.903-2.709,0-5.722,0c-3.011,0-3.312,0.903-5.721,1.205c-2.409,0.301-5.721,2.108-5.721,2.108" />
<path
   id="path14151"
   sodipodi:nodetypes="ccccccsccsc"
   fill="#CECECE"
   d="M392.31,309.119c0,0,10.539,5.42,11.743,5.721  c1.203,0.302,3.249,0.662,3.249,0.662l23.55-6.983c0,0,6.021-2.409,9.635-2.409s5.721,2.71,5.721,2.71l2.107,2.107h4.818  l3.914,3.312l-0.603,3.613l16.336,4.712c0,0,4.139-2.002,5.646-3.207c1.506-1.205-0.302-2.711-0.302-2.711h1.507  c0,0,1.202-3.312,1.506-4.816c0.301-1.506,2.106-2.108,3.311-2.711c1.205-0.602,4.518,0,4.518,0l1.808-1.506  c0,0,5.003-0.821,6.509-1.424c1.504-0.602,1.824-0.005,2.125-1.812s-5.925-3.387-5.925-3.387l-6.924-3.915  c0,0-0.604-11.141-0.604-12.646c0-1.505-1.203-4.215-2.106-6.625c-0.902-2.409-3.636-5.681-3.636-5.681l-12.323,5.379l-2.408-2.71  c0,0-1.205-3.312-2.107-6.022c-0.903-2.71-4.817-6.926-4.817-6.926l-1.205-4.817c0,0-1.203,1.505-4.215-0.903  c-3.013-2.409-5.42-5.42-6.021-7.227c-0.604-1.807-1.506-4.216-1.205-5.721c0.301-1.505,0-9.937,0-9.937s0.603-1.807-1.506-3.613  c-2.107-1.806-3.01-0.903-5.119-4.215c-2.106-3.312-3.01-4.216-3.613-6.323c-0.602-2.108-1.506-3.011-1.506-4.517s0-5.119,0-5.119  l-6.568-0.869l-0.208,2.792l-3.554,0.348l-7.863,15.818l-1.876,8.792l-0.081,0.641l8.71-1.025l11.141,52.694l-3.312,0.603  c0,0-9.033-0.603-12.345,0c-3.312,0.602-4.517,0.903-6.926,2.71s-7.526,5.721-7.526,5.721l-8.132,7.227" />
<path
   id="path14111"
   fill="#CECECE"
   d="M474.301,323.033c0,0,3.494-1.741,5-2.946s0.511-2.679,0.511-2.679l1.125-0.108  c0,0,1.354-3.417,1.655-4.921c0.302-1.506,1.63-1.439,2.834-2.042c1.205-0.602,4.209-0.083,4.209-0.083l2.458-1.834  c0,0,5.896-1.223,7.4-1.826s1.548-0.825,1.849-2.632c0.303-1.807-5.764-3.991-5.764-3.991l-7.527-4.01  c0,0-0.541-10.079-0.541-11.584s-1.181-4.8-2.084-7.208c-0.902-2.41-3.614-5.542-3.614-5.542l14.671-10.199l41.854-23.486h1.204  c1.808,1.205,6.927,11.744,6.927,11.744s3.612,6.925,5.119,9.936c1.504,3.012,1.807,6.625,1.807,6.625v-0.301l0.301,7.227  l-5.42,8.732l-9.033,13.549c0,0,4.518,0.603,4.817,1.807c0.302,1.205-0.302,4.818-0.302,4.818l-0.603,12.947l-0.903,16.56  l-22.884-2.107l-24.69-2.71l-15.056-1.807l-3.684-1.397L474.301,323.033" />
<path
   id="path14145"
   fill="#CECECE"
   d="M376.28,232.126l-1.493,12.375c0,0,0.846,8.431,0.243,10.237  c-0.603,1.806,5.119,10.539,6.022,12.346c0.902,1.807-0.604,7.829-1.205,9.937c-0.603,2.108,1.807,6.625,1.807,6.625  s0.302,3.613,0.904,6.323c0.602,2.71,6.624,10.237,8.431,11.743c1.808,1.506,2.706,2.431,2.706,2.431l7.521-6.267  c0,0,5.342-4.068,7.75-5.875c2.409-1.807,4.188-3.522,7.5-4.125c3.312-0.602,12.125,0.25,12.125,0.25l3.604-0.996l-10.432-49.343  l-9.464,0.88l0.418-1.958c0,0-21.729-1.542-25.645-1.542c-3.914,0-3.368-1.806-6.98-2.71" />
<path
   id="path14161"
   fill="#CECECE"
   d="M354.098,233.929l-0.903,40.648c0,0,0.903,1.205-0.603,2.71  c-1.507,1.505-3.613,4.517-3.613,4.517s-4.216,4.215-5.119,6.021c-0.903,1.807-1.505,3.011-1.505,4.216  c0,1.204-1.745,6.128-1.745,6.128l0.239-0.708l-3.318,13.471c0,0,7.228,0.079,9.938,0.38c2.71,0.301,14.198,1.285,17.812,2.188  c3.613,0.903,21.439,4.505,21.439,4.505s1.402-2.779,2.306-5.188c0.904-2.409,1.943-4.443,1.943-4.443L393.03,305  c0,0-1.756-1.369-3.562-2.875c-1.808-1.505-7.273-8.165-7.875-10.875c-0.604-2.71-1.125-7.062-1.125-7.062s-2.478-5.017-1.875-7.125  s1.902-7.943,1-9.75c-0.903-1.807-6.665-11.693-6.062-13.5c0.604-1.807,0.062-10.188,0.062-10.188l1.582-12.106h-0.302l-9.29-0.019  l-3.74,1.312" />
<path
   id="path14167"
   fill="#CECECE"
   d="M352.842,235.001l-2.324,1.494l-4.863-0.306l0.5,6.938l-10.09-0.609  c0,0,1.506,6.323,0.301,8.431c-1.204,2.108-3.914,8.732-3.914,8.732l-9.937,18.97c0,0-1.204,4.818-3.915,6.323  c-2.709,1.506-8.129,3.011-8.129,3.011l-1.004,0.329l13.048,9.607l16.692,0.945c0,0,1.572-5.036,1.572-6.24  c0-1.205,0.534-2.443,1.438-4.25c0.904-1.807,4.5-6,4.5-6s2.308-3.432,3.812-4.938c1.506-1.506,1.188-2.685,1.188-2.685l1.25-39.315  " />
<path
   id="path14173"
   fill="#CECECE"
   d="M289.774,273.465l-0.933-0.589l14.021-34.288l31.816,3.717c0,0,1.506,6.323,0.301,8.431  c-1.204,2.108-3.914,8.732-3.914,8.732l-9.938,18.97c0,0-1.45,4.308-4.161,5.813c-2.709,1.506-8.688,3.188-8.688,3.188" />
<path
   id="path14931"
   fill="#CECECE"
   d="M276.54,303.663l7.053,5.214c0,0,20.997-0.927,22.834-0.316  c1.837,0.613,0.488,0.98,2.448,1.104c1.96,0.121,10.901,0.367,10.901,0.367l16.502,0.902l2.632-10.872l-17.319-0.936l-12.491-9.269  l0.902,0.602l-21.68-16.561" />
<path
   fill="#CECECE"
   d="M260.645,209.568l13.529,6.29c0,0,2.41,0.377,2.746,1.218c0.336,0.841,0.168,1.682,0.841,3.196  c0.673,1.514,0.336,2.019,0.504,3.869c0.168,1.85,0.336,3.195-0.168,4.709c-0.505,1.514-1.682,5.887-1.682,5.887l15.474,3.184  l5.118-1.506l4.89,0.988c0,0,10.667-24.521,11.571-26.027c0.902-1.505,0.954-2.193-0.25-4c-1.203-1.807-5.672-1.976-6.875-1.976  c-1.205,0-3.312,0-4.818-0.602c-1.506-0.603,0-4.216,0-4.216l9.329-35.816c0,0-0.886,0.442-4.347,2.797  c-3.743,2.548-9.365,6.075-10.885,7.594c-1.52,1.519-13.923,12.151-15.188,13.417c-1.265,1.266-9.113,9.113-10.632,10.125  c-1.519,1.013-0.757,0.516-3.794,0.771c-3.038,0.253-2.787,1.003-3.293,2.269c-0.506,1.266-2.524,1.899-2.524,1.899  s0.622,0.875,0.115,3.406c-0.268,1.34-0.711,1.761-0.995,2.16"
   id="path22" />
<path
   id="path14915"
   fill="#CECECE"
   d="M275.443,301.616l-1.93-2.64l-10.166-11.391l-8.574-8.696l-2.817-2.572  c0,0,2.613-6.675,2.914-9.084c0.301-2.409,2.843-5.42,5.553-9.635c2.073-3.224,4.517-4.818,6.022-6.323  c1.506-1.505,3.312-2.71,5.119-5.42c1.807-2.71,4.639-9.523,4.639-9.523l15.535,2.898l5.119-1.505l4.611,0.864" />
<path
   id="path14917"
   fill="#CECECE"
   d="M250.093,322.793c0,0,4.047-7.471,5.149-8.696c1.102-1.225,0.245-1.837,1.102-3.43  c0.857-1.592,0.735-2.817,0.98-4.776c0.245-1.96,0.123-2.695,0.123-3.797c0-1.103,0.735-3.919,0.735-3.919l2.817-4.165l1.47-4.899  l0.041-0.456l-8.125-8.241l-2.817-2.572l-0.275-0.382c0,0-0.092,0.763-0.944,2.253c-0.852,1.491-0.639,1.704-2.129,3.407  c-1.49,1.703-1.703,2.342-3.193,3.619c-1.491,1.277-1.704,2.768-3.194,3.62c-1.491,0.852-2.342,1.917-2.342,1.917l0.064-0.091  c0,0-0.916,1.581-2.193,2.858s-1.49,2.981-1.703,4.685c-0.213,1.703-0.852,1.49-0.639,4.471c0.213,2.981,0.426,2.981,0.639,5.536  c0.213,2.555,1.064,2.555,1.916,4.258c0.852,1.703,0.803,1.242,2.08,2.946c1.278,1.703,3.03,2.803,5.372,3.655  s3.717,1.588,3.717,1.588" />
<path
   id="path14921"
   fill="#CECECE"
   d="M274.967,302.918l-1.042,4.792c0,0-0.406,3.922-0.528,4.412c-0.122,0.49,0,3.43-0.245,4.287  c-0.245,0.857-1.103,1.347-1.225,2.082c-0.122,0.735,0,7.471,0,7.471v0.368c0,0-4.287-3.43-5.512-4.165  c-1.225-0.734-2.816-1.959-3.797-2.449c-0.98-0.49-2.45-2.327-2.45-2.327l-3.062-3.185c0,0-0.735-0.857,0.122-2.45  c0.857-1.592,0.735-2.817,0.979-4.776c0.245-1.96,0.123-2.695,0.123-3.797c0-1.102,0.735-3.919,0.735-3.919l2.817-4.165l1.47-4.899  l0.041-0.456l0.449,0.456l10.166,11.391L274.967,302.918" />
<path
   id="path14929"
   fill="#CECECE"
   d="M277.967,306.542l5.083,3.667c21.569-0.372,23.444-0.622,23.166,0.293  c1.838,0.613,2.707,1.002,4.668,1.125c1.959,0.121,11.042-0.209,11.042-0.209l0.548,10.241v-0.736l1.47,27.068l-11.759-3.186  c-0.245-0.121-8.543-4.867-18.128-9.217c-9.584-4.348-20.822-8.542-20.822-8.542s-0.122-6.736,0-7.472  c0.123-0.735,0.98-1.225,1.225-2.082c0.245-0.856,0.123-3.798,0.245-4.287c0.123-0.489,0.513-3.705,0.513-3.705l0.834-4.747" />
<path
   id="path14923"
   fill="#CECECE"
   d="M256.226,314.807l2.742,3.361c0,0,1.687,1.843,2.667,2.333  c0.979,0.489,3.032,2.057,4.256,2.792c1.224,0.735,5.155,3.639,5.155,3.639l0.891,0.57l-0.156,7.881l-2.313,1.619  c0,0,0.26-0.455-1.444-3.436c-1.703-2.98-0.426-2.769-3.407-4.47c-2.98-1.703-2.98-2.342-5.749-2.98  c-2.768-0.64-4.233-1.447-4.233-1.447l-3.849-1.587c0,0,3.357-6.071,4.459-7.296" />
<path
   id="path14925"
   sodipodi:nodetypes="csc"
   fill="#CECECE"
   d="M273.18,328.142c0,0,10.59,4.355,20.174,8.704  c9.585,4.348,17.883,9.094,18.128,9.217l-0.245,0.246l-1.353,1.485c0,0-6.978,0.597-8.813,1.087  c-1.837,0.489-4.287,0.489-6.736,1.715c-2.449,1.225-12.37,4.041-12.37,4.041l-4.655,1.592l-6.921,0.586  c0,0,1.251-5.115,1.464-7.244s-0.213-5.748-0.213-5.748l-1.984-5.85l1.625-0.97l1.562-1.188l0.219-6.688" />
<path
   id="path14931_1_"
   fill="#CECECE"
   d="M386.296,319.658c0,0-17.402-3.504-21.016-4.406c-3.613-0.904-15.394-1.865-18.104-2.166  c-2.71-0.301-10.459-0.64-10.459-0.64l-13.499-0.819l0.523,8.156l2.694,0.367l10.778,7.716l33.315,24.375l10.655,7.717l6.002,4.531  c0,0,2.449,1.348,3.186,2.327c0.734,0.979,3.304,6.811,3.304,6.811l6.458-1.791l-4.031-6.116c0,0-1.205-2.711-0.603-4.818  c0.602-2.107,1.204-0.301,3.613-0.602c2.408-0.301,1.506-1.506,2.408-3.012c0.903-1.506,0.302-3.012,0.302-3.012l-3.312-2.107  l-0.603-25.896l-11.379-0.21" />
<path
   id="path14895"
   fill="#CECECE"
   d="M378.329,383.549c0.489-0.367,8.848-4.922,8.848-4.922l5.175-4.166  c0,0-1.065-3.856-1.8-4.835c-0.736-0.98-3.161-2.979-3.161-2.979l-6.002-4.531l-10.656-7.717l-33.315-24.375l-10.778-7.717  l-2.572-0.49l2.204,27.928l0.98,7.227l2.167,13.895c2.315-0.352,13.555,1.241,15.049,1.803c1.549,0.58,16.085,5.688,20.344,7.625  c4.26,1.936,7.761,4.647,9.698,6.584" />
<path
   id="path14899"
   sodipodi:nodetypes="cccccsccsssssscccccccccscccccc"
   fill="#CECECE"
   d="M475.042,324.606l-0.981,2.695  l-3.43-0.367l-0.49,2.572l-2.205,0.857c0,0,0.368,0.489-0.612,1.47c-0.979,0.98-2.572,2.572-2.572,2.572l-0.245,3.062  c0,0-1.837,0.612-2.694,0.857c-0.857,0.244-3.797,0.244-4.287,0.367c-0.489,0.123-2.204,1.225-2.694,1.959  c-0.49,0.736-0.122,1.104-1.348,1.838c-1.225,0.734-2.572,1.471-2.449,2.205c0.122,0.735,0.122,2.939,0.367,3.552  c0.245,0.613,1.348,3.674,1.348,3.674l0.122,3.309l6.614-0.246l3.92-1.102v1.348l0.122,5.266l-2.204,2.082l-0.245,5.758l0.612,3.062  c0,0,1.96,2.693,0.857,3.184s-5.022,0-5.022,0l-1.96,0.735l-3.797,0.367l-4.286,0.489l-3.92,0.246l-3.43,1.715  c0,0-2.204-3.553-5.021-5.39s-1.226-0.489-2.94-0.612c-1.714-0.123-2.204,0.123-3.429,0.244c-1.226,0.123-5.39,0-6.369,0.246  c-0.98,0.244-1.838,0.367-2.94,0.367c-1.102,0-3.307-1.225-4.287-2.082c-0.979-0.857-0.734-0.857-2.204-0.246  c-1.47,0.613-6.247,0.123-7.349,0.368c-1.103,0.245-3.571,0.474-3.571,0.474l-3.096-4.203c0,0-2.726-2.814-2.124-4.922  s0.465-0.741,2.874-1.042s2.306-2.786,3.209-4.292s-0.084-3.5-0.084-3.5l-3.032-2.307l-0.598-26.235l-10.859-0.25l-0.297-5  c0,0,0.426-0.716,1.328-3.125c0.904-2.409,2.5-5.75,2.5-5.75s13.346,6.035,14.55,6.335c1.204,0.301,7.409-1.793,7.409-1.793  l18.834-5.25c0,0,4.137-2.042,7.75-2.042s5.478,2.542,5.478,2.542l2.022,1.708l4.873,0.042l2.708,2.333l-0.833,3.917  L475.042,324.606" />
<path
   fill="#CECECE"
   d="M375.217,387.668c4.469,2.875,7.262,7.396,5.18,17.592c0,0,2.828,1.551,3.686,1.551s5.88,2.939,7.35,2.694  c1.47-0.244,7.349,0.735,8.451-0.611c1.103-1.348,4.409-1.961,5.267-3.186s0.857-1.715,2.083-2.082  c1.225-0.367,5.021-0.734,6.491-0.857s9.869,0.314,9.869,0.314l1.645,1.768c0,0-0.368,1.96,1.715,4.287  c2.082,2.327,0.734,3.553,4.164,3.553s7.104,0,7.104,0h10.653l-0.854-6.002c0,0-1.47-5.268-1.593-6.125  c-0.122-0.857-0.489-5.389-0.612-6.124c-0.122-0.735,0.735-3.308-0.734-5.634c-1.471-2.328-2.817-4.41-2.817-4.41l-2.128-3.354  c0,0-2.7-4.745-5.518-6.582s-0.966-0.711-2.681-0.834c-1.714-0.123-1.66,0.089-2.885,0.21c-1.226,0.123-2.979-0.331-3.959-0.085  c-0.98,0.244-3.397,0.531-4.5,0.531c-1.102,0-4.488-0.705-5.469-1.562c-0.979-0.857-0.549-1.038-2.019-0.427  c-1.47,0.613-4.286-0.447-5.388-0.202c-1.103,0.245-6,0.723-6,0.723l-7.531,1.812l-4.96,4.014c0,0-7.979,4.453-8.468,4.82  C380.269,383.829,375.217,387.668,375.217,387.668"
   id="path33" />
<path
   id="path14903"
   sodipodi:nodetypes="cscccc"
   fill="#CECECE"
   d="M475.874,324.904l-1.375,3.223l-3.146-0.39l-0.471,2.599  l-1.833,0.583c0,0,0.118,0.54-0.862,1.521c-0.979,0.979-2.406,2.25-2.406,2.25l-0.279,3.822c0,0-1.082-0.16-1.939,0.084  c-0.857,0.246-4.51,0.753-5,0.875c-0.489,0.122-1.438,0.012-1.928,0.746s-1.067,1.667-2.293,2.402  c-1.225,0.735-2.184,2.117-2.061,2.852c0.122,0.736,0.38,2.419,0.625,3.031c0.245,0.613,1.062,3.188,1.062,3.188l0.062,2.562  l5.594-0.188l4.906-1.281l0.031,2.781l0.031,5.312l-2.156,1.875l0.062,3.406l0.281,4.188c0,0,2.228,4.541,1.125,5.031  s-3.781,0.281-3.781,0.281l-3.219,0.188l-3.219,0.625l-4.531,0.531l-5.406,0.531l-3.031,1.406l1.844,2.906  c0,0,1.998,2.953,3.469,5.281c1.47,2.326,0.929,3.184,1.051,3.919c0.123,0.735,0.49,5.267,0.612,6.124  c0.123,0.857,1.556,5.992,1.556,5.992l0.526,5.031l1.103,3.553l1.559,4.537l2.188,3.719c0,0,3.512,3.568,4.125,3.812  c0.612,0.245,11.562,0.625,11.562,0.625l1.512-7.621c0,0,3.797,4.113,5.062,3.797s2.848-2.531,2.848-2.531s4.113,1.266,5.379,3.48  s3.797,3.481,4.746,4.747s3.875,0.567,7.355,2.782c3.481,2.215,3.403,1.964,7.2,3.229c3.797,1.267,9.493,3.481,9.493,3.481  l16.77,5.062c0,0,0.633-6.012,1.266-9.81c0.633-3.797,8.543-18.036,8.543-18.036s1.267-1.582,0.95-3.797s0.949-7.594,1.898-9.176  s3.164-8.859,3.48-10.125s0.633-5.379,0.633-6.646c0-1.266,0.316-4.43,0.316-4.43l3.797-3.165l-5.379-23.414l-4.026-19.393  l-20.594-1.438l-24.25-2.594l-13.938-1.969l-4.25-0.844L475.874,324.904" />
<path
   id="path14905"
   sodipodi:nodetypes="cssssssccsscc"
   fill="#CECECE"
   d="M379.801,407.024c0,0,3.842,1.054,4.699,1.054  s5.88,2.939,7.35,2.694c1.47-0.244,7.349,0.735,8.451-0.611c1.103-1.348,4.409-1.961,5.267-3.186s0.857-1.715,2.083-2.082  c1.225-0.367,5.021-0.734,6.491-0.857s8.535-0.036,8.535-0.036l1.333,1.293c0,0,0.418,2.756,2.5,5.083s1.595,3.582,5.024,3.582  s7.105,0,7.105,0l10.641-0.112l0.75,2.562l2.656,4.532l2.531,2.812c0,0,2.605,1.631,3.219,1.875  c0.611,0.245,11.189,0.579,11.189,0.579l0.377,0.083l-0.688,3.399l-5.617,11.41l0.316,8.859c0,0-2.85-0.949-4.115-0.949  s-7.594-2.531-7.594-2.531s-1.898,0.633-3.797,2.215s-5.695,5.379-8.543,5.379s-11.707-2.531-14.238-3.48s-6.329-2.215-8.227-4.43  s-2.531-4.113-2.531-4.113l-3.165,4.746c0,0-3.797,0.949-7.594-0.316s-7.277-5.379-7.277-5.379l-3.164,2.531  c0,0-4.747-5.379-6.013-7.278c-1.266-1.898-4.746-2.215-7.91-4.113s-4.746,0-6.328-0.949c-0.649-0.39-2.795-1.951-5.091-3.391  c-0.232-0.146-1.016-1.604-1.25-1.75c-0.191-0.12,7.774-8.629,7.583-8.749" />
<path
   id="path14909"
   fill="#CECECE"
   d="M324.067,349.918l-11.349-3.292l-1.542,1.75l-1.38,1.084c0,0-7.227,0.857-9.063,1.348  s-4.287,0.49-6.736,1.715c-2.45,1.225-12.371,4.043-12.371,4.043l-4.655,1.592l-6.794,0.371c0,0-0.792,2.977-1.644,4.68  s-3.62,5.536-3.62,5.536l0.176,0.068c0,0,0.857,0.736,2.327,0.736s2.45,0,3.307,0.244c0.857,0.245,2.695,0,3.185,0.857  c0.49,0.857,0.98,1.103,0.123,2.205c-0.857,1.102-2.572,1.469-1.837,2.939c0.735,1.47,3.185,2.695,3.185,2.695l7.594,2.816  l0.857,0.98c0,0,0.612,1.469,2.327,1.225c1.715-0.246,5.879-2.817,5.879-2.817l-0.49-3.798c0,0,2.327,0.123,4.287,0.123  s2.694-0.244,4.042-0.734s1.593-1.593,2.694-1.838c1.103-0.244,1.348,3.43,2.45,3.553c1.103,0.122,2.082-0.98,3.552-1.838  s2.205-1.47,2.572-2.449c0.367-0.98-2.327-5.145-2.327-5.145s2.45-1.471,4.042-2.449c1.592-0.98,1.592-2.083,2.939-3.798  s0.98-2.449,1.348-3.797s1.348-1.715,1.348-1.715l2.816,2.572l4.116-0.854L324.067,349.918" />
<path
   id="path14881"
   fill="#CECECE"
   d="M278.688,404.352c1.715-1.96,1.715-2.94,3.674-4.899c1.96-1.96,2.083-3.43,3.675-3.797  s8.329-1.592,8.941-2.572s-0.245-2.572-0.245-2.572l-2.359-8.979l-0.319,0.137c0,0-5.038,2.717-6.752,2.963  c-1.715,0.244-2.327-1.225-2.327-1.225l-0.857-0.98l-7.594-2.816c0,0-2.684-1.756-3.418-3.226c-0.735-1.471-0.159-1.74,0.699-2.842  c0.857-1.103,1.514-1.173,1.024-2.03c-0.49-0.857-2.101-0.354-2.958-0.6c-0.857-0.244-1.837-0.244-3.307-0.244  s-2.327-0.736-2.327-0.736l-0.17-0.101l-5.116,4.716c0,0-2.342,2.555-4.258,3.833c-1.916,1.277-4.471,2.769-4.471,2.769l0.297-0.192  c0,0-0.612,0.612-2.327,1.837s-2.327,0.734-3.675,2.082c-1.347,1.348-2.033,1.754-2.939,3.062c-1.103,1.592-1.225,1.96-1.592,3.307  c-0.532,1.949-1.225,2.818,0.612,4.777c1.837,1.96,1.47,1.103,3.919,2.327c2.45,1.226,3.797,1.715,6.125,2.45  c2.327,0.734,2.559,1.094,5.267,1.348c2.649,0.246,3.473-0.055,6.125,0.489c2.864,0.587,1.394,0.052,4.899,0.735  c3.289,0.641,4.287,0.979,6.491,2.204c2.205,1.226,3.218,2.094,3.218,2.094" />
<g
   id="g41">
	<path
   id="path14961"
   d="M 318.87891 358.5293 C 318.87891 358.5293 317.89925 358.89714 317.53125 360.24414 C 317.16325 361.59114 317.53159 362.32797 316.18359 364.04297 C 314.83659 365.75697 314.83614 366.85984 313.24414 367.83984 C 311.65314 368.81884 310.40625 369.06641 310.40625 369.06641 C 310.40625 369.06641 312.9295 373.11766 312.5625 374.09766 C 312.1955 375.07666 310.4065 376.8002 308.9375 377.6582 C 307.4685 378.5162 305.75925 379.71966 304.65625 379.59766 C 303.55325 379.47366 303.4155 375.9142 302.3125 376.1582 C 301.2115 376.4032 300.87925 377.44945 299.53125 377.93945 C 298.18325 378.42945 298.0225 378.50195 296.0625 378.50195 C 294.1025 378.50195 292.94336 378.32617 292.94336 378.32617 L 293.63867 382.29492 L 295.97266 391.10938 C 295.97266 391.10938 296.737 393.02095 296.125 394.00195 C 295.513 394.98295 288.86934 395.88886 287.27734 396.25586 C 285.68534 396.62286 285.56156 398.09273 283.60156 400.05273 C 281.64256 402.01173 281.64273 402.99117 279.92773 404.95117 C 278.21273 406.91117 277.72266 408.13672 277.72266 408.13672 L 281.0293 410.58594 C 281.0293 410.58594 283.96812 412.54534 284.70312 413.40234 C 285.43812 414.25934 287.50977 415.74414 287.50977 415.74414 C 290.25977 418.02014 293.67309 423.03833 295.99609 425.36133 C 298.31909 427.68433 305.79759 427.13258 310.80859 426.51758 C 316.32659 425.83958 318.57009 417.11258 319.24609 414.89258 C 319.51409 414.01458 320.20355 409.49333 320.68555 406.48633 C 321.05755 404.17133 319.9753 390.94408 319.9043 386.83008 C 319.8513 383.73308 319.76942 383.62231 321.10742 381.57031 C 321.96004 380.26319 323.09887 377.03318 324.42383 374.49219 L 327.46875 371.08789 L 327.46875 371.08594 L 325.63672 360.00391 L 324.43359 360.44531 L 321.13477 361.00391 L 318.87891 358.5293 z "
   style="fill:#cecece;fill-opacity:1" />
	
		
</g>
<path
   id="path14933_1_"
   fill="#CECECE"
   d="M205.296,251.02l29.734,35.149l0.328-0.411c0.924-1.139,2.037-2.347,3.525-3.651  c2.17-1.899,2.929-4.434,5.125-7.375c2.188-2.927,2.707-5.44,4.844-9.656c2.422-4.778,2.807-5.871,2.781-6.031  c0.086-0.084,0.234-0.219,0.438-0.469c1.59-1.941,2.959-6.047,6.469-9.688c3.443-3.569,4.793-4.088,7.75-8.031  c2.324-3.098,2.42-4.292,4.062-8.125c1.453-3.388,1.07-2.81,1.844-7.844c0.775-5.034-0.311-5.324-2.031-6.688  c-0.182,0.489-1.304,1.088-1.804,1.494c-1.019,0.886-3.976,2.587-3.976,2.587l-5.318,5.688l-6.328,5.062c0,0,0,1.013-4.811,2.531  c-4.809,1.519-39.488,14.935-39.488,14.935" />
<path
   id="path14937_1_"
   fill="#CECECE"
   d="M202.131,252.919l-0.857,1.96l0.123,3.185l0.857,3.675c0,0,0.612,1.225,0.612,1.715  c0,0.49,0.368,1.347-0.49,1.714c-0.857,0.368-1.47-0.49-3.552-0.367c-2.082,0.123-4.777-0.123-6.369,1.225s-2.817,2.572-3.919,4.042  c-1.103,1.47-0.98,0.98-1.837,2.94c-0.857,1.959-1.715,1.47-2.082,4.409c-0.368,2.939-1.225,6.859-1.225,6.859  s-0.612-0.123,0.123,1.47s0.123,1.837,1.837,3.43c1.715,1.592,4.165,3.797,4.899,5.144c0.735,1.348,1.347,2.205,2.082,3.797  c0.735,1.592,1.96,2.817,2.328,4.777c0.367,1.959,1.102,0.49,1.102,3.185s-0.123,8.084-0.123,8.084s1.225,0.49,2.572,1.102  c1.347,0.613,0.98,0.735,1.837,0.735s5.144-0.123,7.594-0.123s5.267-0.98,7.349-1.47c2.083-0.49,2.572-2.694,2.572-2.694  l3.675,0.123l6.246-1.103l1.258-0.314l1.474-0.291c-0.209-0.635-0.476-2.729-0.688-3.375c-0.968-2.958-0.519-7.149-0.013-9.543  c0.688-3.254,1.801-6.08,2.719-7.375c0.658-0.928,1.833-2.5,1.833-2.5l-29.512-34.887" />
<path
   id="path14939_1_"
   fill="#CECECE"
   d="M230.57,311.656c1.146,3.495,1.868,5.431,3.506,7.069  c0.431,0.431,0.814,0.842,1.205,1.243l-2.323,2.574c0,0-2.205,3.674-2.695,4.531s-0.612,1.96-1.103,3.796  c-0.489,1.838-0.857,2.818-0.979,4.533c-0.123,1.715,0.244,6.002-1.225,7.594c-1.471,1.592-1.103,1.469-2.939,2.326  c-1.838,0.857-3.062,1.715-5.145,1.594c-2.082-0.123-8.272-0.314-9.865-0.682s-2.664,0.693-5.079-1.523  c-2.695-2.572-3.675-5.021-5.022-6.615c-1.347-1.592-2.167-2.078-2.412-3.67c-0.245-1.592-0.826-1.455-1.071-3.906  c-0.245-2.449-0.793-3.805-0.796-5.145c0.367-1.103,0.59-5.25,0.59-5.25l0.438-4.127c0,0,0.924,0.419,2.271,1.032  c1.347,0.613,0.98,0.735,1.837,0.735s5.144-0.123,7.594-0.123s5.267-0.98,7.349-1.47c2.083-0.49,3.629-2.659,3.629-2.659  l2.618,0.087l6.246-1.103L230.57,311.656" />
<path
   id="path14947_1_"
   fill="#CECECE"
   d="M206.812,347.439c0,0,2.644,1.362,1.296,3.077c-1.347,1.715-4.703,6.392-4.703,6.392  l1.606-0.037l0.524,0.382l0.123,3.553c0,0,0.198,1.42-1.026,2.032c-1.225,0.611-1.427,0.073-1.917,1.542  c-0.49,1.471-2.885,0.293,0.667,2.375s3.738,2.834,5.085,3.08c1.347,0.244,1.723-0.946,3.805-1.19  c2.083-0.245,2.94-2.205,4.042-0.734c1.102,1.469,2.816,5.756,2.816,5.756s-0.485,1.976,0.005,3.935  c0.49,1.96,0.43,2.464,1.165,4.424c0.734,1.959,0.941,2.677,1.833,3.708c0.834,1.3,1.958,1.771,1.958,1.771s8.882,0.249,9.617,0.249  l-0.136-1.218c-0.126-1.51,0.714-6.058,1.844-8.125c1.603-2.931,4.163-4.653,7.469-6.5c1.038-0.58,1.673-1.187,1.673-1.187  c-1.703-1.49-4.143-6.982-5.633-9.751c-1.49-2.768-0.639-6.812-0.213-9.793c0.426-2.981-0.213-4.473,0.426-7.24  s1.916-5.748,3.406-9.155c1.491-3.406,2.556-6.812,2.556-6.812l1.041-1.691l-0.921-0.331c-0.793-0.237-1.577-0.498-2.334-0.789  c-3.913-1.505-5.243-2.888-6.606-4.284l0,0l-2.449,2.695c0,0-2.205,3.674-2.695,4.531s-0.612,1.961-1.103,3.797  c-0.489,1.838-0.857,2.818-0.979,4.532c-0.123,1.715,0.244,6.002-1.225,7.594c-1.471,1.594-1.103,1.471-2.939,2.328  c-1.838,0.857-3.062,1.715-5.145,1.592c-2.082-0.122-9.432-0.122-11.024-0.49C208.198,347.333,207.089,347.407,206.812,347.439" />
<path
   id="path14199_1_"
   sodipodi:nodetypes="ccsssssc"
   fill="#CECECE"
   d="M247.218,326.959l-0.99,2.073c0,0-1.064,3.407-2.556,6.814  c-1.49,3.406-2.768,6.387-3.406,9.154s0,4.259-0.426,7.24c-0.426,2.98-0.863,6.616,0.627,9.384c1.49,2.769,2.297,5.26,4,6.75  l1.674,1.917c1.302-0.702,3.456-0.498,5.9-2.128c3.485-2.323,2.263-0.863,7.065-5.161c1.839-1.646,5.197-7.562,5.625-10.844  c0.29-2.227,1.208-4.381,1.156-6.469c-0.056-2.277-1.899-8.949-2.531-10.469c-0.732-1.76-2.695-3.389-5.406-4.938" />
<path
   id="path14959_1_"
   fill="#CECECE"
   d="M273.241,439.991l-7.794,0.261c0,0-2.205-1.103-3.307-1.103  c-1.103,0-2.205-1.348-3.43-1.348s-2.082,1.593-3.43,1.838c-1.348,0.244-1.838-1.103-3.062-1.225  c-1.225-0.123-2.694,4.898-2.694,4.898s-2.082,1.471-2.694,1.715c-0.613,0.246-3.92-1.715-4.532-1.959s-2.817-1.592-4.287-1.225  s-2.23,2.72-2.23,2.72s-1.199,2.425-1.934,2.669c-0.735,0.246-3.062-0.123-5.39-0.123s-4.531,0.123-6.002-0.488  c-1.47-0.613-1.225-1.471-1.715-2.941c-0.49-1.469-0.367-2.449-0.734-4.286s-0.98-1.593-2.205-1.96s-2.939-0.244-2.939-0.244h-0.245  c0,0-0.489-1.838-0.245-2.695c0.245-0.857,1.715-1.225,1.715-1.225s3.062,0.244,3.553,0.123c0.489-0.123,2.204,0,2.939-0.857  c0.734-0.857-1.244-3.213-1.488-3.702c-0.245-0.49-0.717-1.075-0.717-2.178s1.592-2.94,1.592-2.94l3.062-3.184l3.675-4.287  c0,0,2.082-2.205,2.939-3.062s-0.122-0.979-0.245-1.837c-0.122-0.857-0.244-2.083-0.122-3.185c0.122-1.103,0.245-1.103,0.245-3.062  c0-1.959-0.49-0.612-1.96-2.082s-2.205-2.205-2.939-2.695c-0.735-0.489-2.45-0.979-4.165-2.204s-1.102-0.979-1.225-2.45  c-0.123-1.469,0.49-1.347,1.225-2.693c0.735-1.348,1.513-4.597,1.513-4.597s8.953,0.375,9.688,0.375l-0.804,3.447  c0.394,2.325,0.485,5.628,2.7,6.871c1.999,1.122,7.106,4.449,10.591,5.224c5.306,1.179,8.103,2.163,12.992,3  c2.345,0.401,9.719,1.473,12.289,3.71c2.046,1.781,3.751,3.595,6.559,6.498l-0.958,0.653l-1.998,0.154c0,0-3.729,1.063-4.371,2.155  c-1.607,2.733,1.308,9.462,1.834,9.578C272.488,430.042,272.836,434.571,273.241,439.991" />
<path
   id="path14965_1_"
   fill="#CECECE"
   d="M273.218,441.314c0.567,7.583,1.188,16.955,1.188,18.062c0,1.898-0.924,2.712,0.025,4.294  s4.113,3.797,4.113,3.797s-1.582,1.266-3.48,2.531s-1.403,1.834-2.353,4.049s-0.179,1.33,0.138,3.861s-1.898,3.164-3.164,5.379  c-1.266,2.217-0.633,8.545,0.633,12.658s0.414,7.281,1.062,10.83c0.43,2.352,1.582,2.645,3.051,4.357  c2.349,2.738,3.164,3.797,3.164,3.797s0,3.797-1.582,3.797s-5.379,1.898-7.594,3.164s-2.848,2.531-3.48,4.113s0,3.164-1.266,3.797  c-1.267,0.633-5.188-0.453-8.669-0.77s-2.723,1.086-5.254,2.352c-2.531,1.268-0.949,0.951-1.898,4.748s-1.266,3.48-3.797,6.328  s-6.012,1.266-7.91,2.215s-2.215-2.215-2.215-2.215s-4.431-4.113-6.013-4.746s-4.43-1.266-4.43-3.797  c0-2.533-1.266-3.482-2.848-5.697s-2.215-0.316-4.113-1.582s1.266-1.898,0.316-4.43c-0.475-1.266-0.255-0.785-0.819-0.949  c0,0,0.666-0.947,1.531-2.334c0.867-1.385,2.426-2.598,3.639-4.85c1.212-2.252,1.559-6.582,1.559-8.488  c0-1.904-0.693-2.771-1.559-5.023c-0.867-2.252-1.387-1.385-4.504-3.291c-3.118-1.904-3.292-2.424-5.37-3.984  c-2.079-1.559-1.559-2.598-1.559-4.156s2.425-1.906,3.464-3.291c1.039-1.387,0.52-1.906,0.52-3.119c0-1.211-0.346-3.291-0.346-5.715  c0-2.426-0.52-3.465-1.212-5.197s-0.173-4.678-0.52-6.756c-0.347-2.078-0.52-3.637-0.693-5.197  c-0.173-1.559-1.472-6.425-1.472-6.425l0.043-3.296l-1.592-0.488v-3.062h4.43l0.75-1.418l3.026,0.193l-1.298-6.914  c0,0,1.204-0.262,2.429,0.105s1.249,0.363,1.616,2.2s0.385,3.031,0.875,4.5c0.49,1.471,1.768,2.067,3.237,2.681  c1.471,0.611,3.675,0.488,6.002,0.488s4.654,0.369,5.39,0.123c0.734-0.244,2.434-2.229,2.434-2.229s0.261-2.792,1.73-3.159  s3.675,0.98,4.287,1.225s3.919,2.205,4.532,1.959c0.612-0.244,2.694-1.715,2.694-1.715s1.47-5.021,2.694-4.898  c1.225,0.122,1.715,1.469,3.062,1.225c1.348-0.245,2.205-1.838,3.43-1.838s2.327,1.348,3.43,1.348c1.102,0,3.307,1.103,3.307,1.103  L273.218,441.314" />
<path
   id="path14957_1_"
   fill="#CECECE"
   d="M221.76,387.96c-0.979-0.857-2.474-3.083-3.208-5.042  c-0.734-1.96-0.593-2.081-1.083-4.041c-0.49-1.959-0.25-4.75-0.25-4.75s-0.276-2.364-1.378-3.833  c-1.103-1.471-4.167,0.714-6.25,0.959c-2.082,0.244-2.028-0.506-3.375-0.75c-1.348-0.246-2.114-1.668-5.666-3.75  s-0.005-1.196,0.485-2.667c0.49-1.469,1.165-1.139,2.39-1.75c1.225-0.612,0.958-1.625,0.958-1.625l-0.083-1.75l-0.083-1.125h-2.917  c0,0-2.457,0.122-4.417,0c-1.959-0.123-1.722-0.028-2.089,0.706c-0.367,0.735,0.123,2.45-0.245,3.43  c-0.367,0.98,0.123,1.225-1.102,1.715c-1.225,0.49-2.327,1.593-3.797,2.205c-1.47,0.612-3.674,0.857-4.042,1.347  c-0.367,0.49,0.49,0.857-0.857,1.838c-1.347,0.98-1.102,1.47-2.082,0.98c-0.98-0.49-2.082-2.082-2.572-1.348  c-0.49,0.734-0.612,1.837-1.225,3.062c-0.612,1.225,0.367,2.449-1.47,2.572c-1.837,0.121-2.45,0-3.675-0.49  s-2.939-1.348-4.654-2.205s-3.919-2.449-6.002-2.327c-2.082,0.122-2.45-0.735-3.307,1.225c-0.857,1.96-1.96,4.899-2.205,6.002  s-1.103,2.204-1.225,4.165c-0.123,1.959-0.368,2.449,0,4.164c0.367,1.715,0.367,2.082,1.592,4.164  c1.225,2.082,1.47,2.205,1.47,2.205l12.003,13.473c0,0,1.103,0.367,1.225,1.225c0.123,0.857,0.613,1.961,0.613,1.961  s1.592-0.367,2.082,0.734c0.49,1.103,0.245,3.797,0.245,3.797l0.123,4.41h3.307c0,0,1.47,2.205,1.837,3.919  c0.367,1.715,0.612,3.062,0.49,4.532c-0.123,1.47-0.368,2.694-0.49,4.531c-0.123,1.838-0.368,3.43-0.857,4.41  c-0.49,0.98-1.837,2.939-2.083,4.164s-0.71,1.456,0.147,2.804c0.857,1.346,0.098,0.626,2.18,1.116c2.083,0.49,2.695,0.611,4.41,0.98  c1.715,0.367,4.431,0.776,5.778,1.511c1.348,0.734,3.041,0.571,4.143,1.673c1.103,1.104,3.307,4.164,3.307,4.164  s1.225,2.082,2.083,2.451c0.857,0.367,2.817-0.49,2.817-0.49l0.49-1.104l5.276,1.278l-0.001-1.737l-2.013-0.883l0.008-4.917  l4.742-0.25l0.848-1.641l2.198,0.183l-1.015-7.098c0,0-0.489-1.838-0.245-2.695c0.245-0.857,1.715-1.225,1.715-1.225  s2.134-0.402,2.624-0.523c0.489-0.123,2.306,0.523,3.042-0.334c0.734-0.857-0.644-2.817-0.888-3.307  c-0.245-0.49-0.49-1.348-0.49-2.45s1.592-2.94,1.592-2.94l3.062-3.184l3.675-4.287c0,0,0.85-0.938,1.708-1.795  s1.053-0.984,0.93-1.842c-0.122-0.857-0.236-2.469-0.114-3.57c0.122-1.103,0.359-0.248,0.359-2.208c0-1.959-0.613-0.988-2.083-2.458  s-2.058-1.51-2.792-2c-0.735-0.489-2.493-1.691-4.208-2.917s-1.148-2.317-1.271-3.788c-0.123-1.469,0.49-1.347,1.225-2.693  c0.735-1.348,1.297-3.851,1.297-3.851" />
<path
   id="path14967_1_"
   fill="#CECECE"
   d="M182.458,666.2l-4.441-27.375c0,0-3.164-31.01-4.746-34.174s-1.898-5.062-1.898-7.594  s0.949-28.479,0.633-32.275s1.898-16.137,1.898-16.137s0.316-1.582,1.582-4.746s4.114-10.441,4.43-12.975  c0.316-2.531,2.215-3.164,1.898-5.379s0.949-7.277,0.949-7.277s1.266,2.215,4.43,2.531c3.165,0.316,1.583-0.633,4.114-1.266  s4.43-2.848,6.012-1.266s1.266,1.266,1.582,3.164s0.316,3.48,1.582,6.012s2.353,7.588,3.935,7.904s2.078,0.324,4.292,0.008  s1.898-2.215,1.898-2.215l-0.316-5.064c0,0-1.898-0.316,1.266-2.531c1.582-1.107,2.374-2.452,2.888-3.204  c0,0,0.596-1.453,1.461-2.84c0.867-1.385,2.225-2.498,3.438-4.75c1.212-2.252,1.938-6.781,1.938-8.688  c0-1.904-0.394-2.759-1.259-5.011c-0.867-2.252-1.387-1.385-4.504-3.291c-3.118-1.904-3.292-2.424-5.37-3.984  c-2.079-1.559-1.638-3.467-1.638-5.025s2.336-2.074,3.375-3.459c1.039-1.387,0.688-2.08,0.688-3.293c0-1.211-0.346-2.08-0.346-4.504  c0-2.426-0.52-3.465-1.212-5.197s-0.173-4.678-0.52-6.756c-0.347-2.078-0.52-3.637-0.693-5.197c-0.173-1.559-1.25-6.553-1.25-6.553  l-0.423-0.105l-4.035-0.495l-0.875,1.31c0,0-2.101,0.409-2.958,0.042c-0.857-0.369-2.417-2-2.417-2s-1.474-2.407-2.577-3.511  c-1.102-1.102-3.263-1.591-4.611-2.325c-1.347-0.734-3.598-0.902-5.312-1.27c-1.715-0.369-2.855-0.51-4.938-1  c-2.082-0.49-3.122-0.412-3.979-1.758c-0.857-1.348-0.953-0.643-0.708-1.867s0.822-3.082,1.312-4.062  c0.49-0.98,1.252-2.35,1.375-4.188c0.122-1.837,0.595-2.744,0.718-4.214c0.123-1.471,0.587-3.946,0.22-5.661  c-0.368-1.714-1.25-3.875-1.25-3.875l-3.625-0.312l-0.438-3.5c0,0,0.24-3.647-0.25-4.75c-0.49-1.102-1.5-0.688-1.5-0.688  L71.218,502.751l1.194,1.241c1.386,1.192,4.414,3.961,5.616,6.365c1.582,3.164,2.215,18.668,2.215,18.668s0.633,6.646,1.899,8.545  s5.695,5.062,5.695,5.062l1.266,9.176c0,0-0.633,2.531,0,3.797c0.633,1.266,1.469,4.055,2.102,5.953s3.91,6.07,4.543,8.602  s1.898,10.125,1.898,10.125s1.582,4.115,4.113,5.064s7.911-1.266,7.911-1.266l8.86-2.217c0,0,0.949,0.635,3.48,0.318  c2.531-0.318,6.388-4.121,8.287-2.539s2.472,2.221,2.155,3.805c-0.316,1.582-2.531,2.215-2.848,5.379  c-0.316,3.164-1.582,3.48,0.633,6.012c2.215,2.531,6.961,5.379,6.012,9.809s-6.328,7.277-6.328,7.277s-0.95-0.316-1.899,1.898  s-12.023,33.541-12.023,33.541s-2.215,2.215-1.582,5.062c0.633,2.848,1.898,6.961,1.898,6.961s2.215,3.48,1.898,5.695  s0.758,10.689,0.758,10.689l-1.096,1.967c3.098,0,3.873-0.195,8.906-0.969c5.034-0.775,7.84-1.344,10.938-1.344  s4.165,0.098,6.875-1.062c2.711-1.162,6.592-0.109,11.219-0.688c2.323-0.291,4.753-0.371,8.625-1.531  c3.872-1.162,9.291-2.738,13.938-3.125c4.646-0.389,3.583-0.676,5.906-1.062c2.323-0.389,2.809-0.762,5.906,1.562" />
<path
   id="path14981_1_"
   fill="#CECECE"
   d="M203.719,251.267c-0.5-0.105-2.125-0.905-2.251-1.35  c-0.507-1.771,0.717-1.554,1.477-2.567s1.87-1.583,1.363-2.849s-2.672-1.849-2.672-1.849l-9.366-4.051h-14.175l-34.22-3.033  c0,0-13.315-0.898-20.713-1.312h-1.257l-0.295,11.197c0,0,0.346,10.74,0,11.434c-0.347,0.691-3.393,20.989-3.393,20.989  l-1.583,9.583l-0.667,9.25l-1.219,12.479l12.73,0.465l2.912,0.079c0,0,0.49,1.103,3.185,2.328c2.695,1.225,5.539,2.953,6.737,3.307  c2.083,0.612,5.367,2.707,9.187,2.449c1.457-0.098,1.102,1.471,2.939,2.082c1.837,0.613,8.084,0.857,9.064,0.735  c0.979-0.122,11.391-0.245,12.983-0.489c1.592-0.246,4.532-1.471,5.389-1.838s2.695-0.613,3.797-1.348  c1.102-0.734,1.959-1.837,3.919-1.959c1.96-0.123,5.145,0,5.145,0l1.357-0.687c0,0-0.125-5.368-0.125-8.062  s-0.987-1.296-1.354-3.255c-0.368-1.96-1.317-3.185-2.052-4.776s-1.623-2.45-2.358-3.798s-3.185-3.552-4.899-5.145  c-1.715-1.592-0.633-1.152-1.368-2.745c-0.735-1.592-0.281-2.31-0.281-2.31s0.382-2.485,0.75-5.425  c0.367-2.939,1.389-3.728,2.246-5.688c0.857-1.959,0.735-1.469,1.837-2.939c1.102-1.47,2.074-2.885,3.667-4.231  s3.188-2.317,5.271-2.439c2.083-0.122,3.247,0.307,4.104-0.061c1.062,0.062,1.515,0.012,1.34-0.725  c-0.113-0.477-0.892-2.448-0.892-2.448l-0.262-1.807v-3l1.333-3.275" />
<path
   id="path14973_1_"
   fill="#CECECE"
   d="M206.947,349.283c-0.594-0.207-3.107-2.429-4.917-4.156  c-2.695-2.572-2.944-4.28-4.292-5.874c-1.347-1.592-2.963-3.741-3.208-5.333c-0.245-1.592-0.505-2.008-0.75-4.459  c-0.245-2.449-0.868-3.398-0.5-4.5c0.367-1.103,0.958-8.792,0.958-8.792l-1.427,0.408c0,0-3.049,0.22-5.009,0.343  c-1.959,0.122-3.548,1.433-4.65,2.167c-1.103,0.734-2.826,0.841-3.684,1.208s-3.824,1.295-5.417,1.542  c-1.592,0.244-10.854,0.294-11.833,0.417c-0.98,0.122-7.954,0.03-9.792-0.583c-1.837-0.611-1.919-2.432-3.376-2.334  c-3.819,0.258-6.418-1.679-8.5-2.292c-1.198-0.354-4.264-2.109-6.958-3.333c-2.694-1.226-3.718-3.022-3.718-3.022l-4.366-0.156  l0.082,2.262l0.866,3.465c0,0-0.173,2.945-0.173,3.984s-1.039,1.559,0.693,3.117c1.732,1.56,2.252,0.52,3.291,1.906  c1.04,1.386,1.04,1.213,0.866,3.291c-0.173,2.078-0.52,5.023,0.347,6.062s1.732,1.213,2.945,1.039  c1.212-0.173,5.196-2.771,6.409-1.559c1.213,1.213,1.04,3.984,1.04,3.984l2.771,51.619c0,0-0.693,3.291,0.347,4.504  c1.039,1.213,1.559,2.425,1.559,2.425l0.346-0.173l11.072-5.865l-0.728-1.461l-0.553-0.977c-1.225-2.082-1.039-2.691-1.406-4.406  c-0.368-1.715,0.044-1.917,0.167-3.876c0.122-1.961,1.12-3.459,1.365-4.562s1.018-2.946,1.875-4.906  c0.857-1.96,0.824-2.378,2.906-2.5c2.083-0.122,2.066-0.201,3.781,0.656s4.4,2.135,5.625,2.625s3.569,2.309,5.406,2.188  c1.837-0.123,1.106-1.494,1.719-2.719c0.612-1.226,1.01-2.578,1.5-3.312c0.49-0.734,0.77-0.459,1.75,0.031  c0.98,0.489,1.215,2.105,2.562,1.125c1.348-0.98,0.469-1.608,0.836-2.099c0.368-0.489,2.444-0.539,3.914-1.151  c1.47-0.612,2.962-1.542,4.188-2.031c1.225-0.49,0.613-3.579,0.98-4.559c0.368-0.98,0.059-0.863,0.426-1.598  c0.368-0.735,1.291-0.403,3.25-0.281c1.96,0.123,4.281,0.125,4.281,0.125" />
<path
   id="path14985_1_"
   fill="#CECECE"
   d="M70.184,501.275c-0.438-0.377-0.712-0.596-0.712-0.596s-12.34-14.871-13.922-17.086  s-3.481-6.646-4.43-10.443s-4.113-6.328-8.543-7.594c-4.43-1.266-9.809,2.215-9.809,2.215s-6.012,0.633-9.176-1.582  s-1.898-7.277-1.898-7.277s1.266-9.492,0.949-12.34c-0.028-0.249-0.036-0.488-0.027-0.721l0.999-0.174l4.85,0.346  c0,0,4.157-0.346,6.063-0.346c1.905,0,1.386,0,2.944-0.346c1.559-0.348,2.079-3.291,2.079-3.291s1.905-0.521,2.771-1.041  c0.866-0.52,3.984-1.559,3.984-1.559s2.252-2.252,2.945-2.598c0.693-0.347,2.771,1.039,2.771,1.039l1.559-0.693l9.527-5.196  l12.645-6.583l9.874-3.983l0.173,0.692c0,0,0.866,0.174,2.079,1.04c1.212,0.866,1.559-0.173,2.252,1.905  c0.692,2.078-0.347,2.078,2.078,1.732c2.425-0.347,10.634-5.545,10.634-5.545l41.625-22.25l1.459-1.042l12.458-6.458l12.084,13.75  c0,0,1.003,0.351,1.125,1.208c0.123,0.857,0.292,1.583,0.292,1.583L70.344,501.44" />
<path
   id="path14985_2_"
   fill="#CECECE"
   d="M22.562,444.72h5.219c0,0,4.188-0.188,6.094-0.188c1.905,0,1.098,0.064,2.656-0.281  c1.559-0.348,2.158-3.462,2.158-3.462s2.132-0.675,2.998-1.194c0.866-0.52,3.906-1.406,3.906-1.406s2.526-2.311,3.219-2.656  c0.693-0.347,2.906,0.906,2.906,0.906l2.625-1.312l8.046-4.99l12.641-6.01l9.875-3.469c0,0,1.388-5.765,0.522-7.15  s-1.732-2.771-2.425-5.37c-0.693-2.598-0.693-3.465-0.866-5.369c-0.173-1.906,0.173-5.197-1.039-7.622  c-1.213-2.425-1.213-3.638-2.252-5.196c-1.04-1.559-28.928-62.533-28.928-62.533l0,0l-24.251,1.559L15.1,330.535  c1.266,2.848,2.394,11.977,2.71,13.875s1.266,14.556,0.949,17.403c1.907,4.484,0.033,3.211-4.74,4.245  c-1.898,1.582-0.006,1.134-0.956,6.196c-0.949,5.062-2.848-2.215-3.164,3.797c-0.316,6.013,0.949,12.025,1.266,13.607  s2.848,14.555,2.848,14.555s-0.316,3.164,1.898,6.012s0.316,1.266,2.531,2.215s1.266,1.898,1.898,5.062s2.531,10.442,2.531,10.442  s2.848,5.379,1.898,8.86C23.905,439.981,22.65,442.301,22.562,444.72" />
<path
   id="path14979_1_"
   sodipodi:nodetypes="ccsssssssc"
   fill="#CECECE"
   d="M113.152,310.08c0,0-8.129-1.375-11.594-2.067  c-3.464-0.693-4.677-1.04-8.314-1.56s-7.795-0.866-11.086-1.56c-3.292-0.692-7.103-0.692-10.74-1.385  c-3.638-0.693-6.409,0.52-12.125,0.173s-5.082-0.137-8.2,0.382c-3.118,0.52-5.484,0.83-6.697,1.523s-2.771,1.039-2.771,1.039  l8.993,19.654l0.188,0.439c0,0,28.062,60.8,29.101,62.359c1.039,1.559,1.039,2.771,2.252,5.197c1.212,2.424,0.866,5.715,1.039,7.621  c0.173,1.904,0.173,2.771,0.866,5.369c0.693,2.6,1.559,3.984,2.425,5.371c0.866,1.385-0.776,7.989-0.776,7.989l1.006,0.031  c0,0,0.225,0.82,1.438,1.688c1.212,0.865,1.956-0.352,2.649,1.727c0.692,2.078-0.512,2.088,1.913,1.742  c2.425-0.346,10.919-6.595,10.919-6.595l42.612-22.172h-0.173c0,0-0.663-1.114-1.702-2.327c-1.04-1.213-0.562-4.688-0.562-4.688  l-2.413-51.534c0,0,0.282-1.972-0.931-3.185c-1.212-1.213-5.663,1.234-6.875,1.406c-1.212,0.174-1.946-0.461-2.812-1.5  s-0.704-4.016-0.531-6.094c0.173-2.078,0.583-2.06-0.456-3.446c-1.039-1.387-1.843-0.213-3.575-1.773  c-1.732-1.559-0.71-2.492-0.71-3.531s0.304-3.75,0.304-3.75l-0.695-3.418l-0.43-2.644L113.152,310.08" />
<path
   id="path14983_1_"
   fill="#CECECE"
   d="M14.78,329.501l10.5-1.75l24.188-1.438l-0.553-1.267l-8.574-18.738  c0,0,1.414-0.615,2.626-1.308s3.363-1.341,6.481-1.86c3.118-0.52,2.425-1.039,8.142-0.692s8.488-0.866,12.125-0.173  c3.637,0.692,7.448,0.692,10.74,1.385c3.291,0.693,7.448,1.04,11.086,1.56s4.85,0.866,8.314,1.56  c3.464,0.692,13.338,2.365,13.338,2.365v-0.113l0.836-8.218l1.062-12.438l1.081-10.157c0,0,3.01-18.838,3.357-19.53  c0.346-0.693,0.604-11.729,0.604-11.729l-0.185-10.854l0.185-1.849c-2.21-0.124-4.026,0-4.667,0c-2.784,0-39.237-0.027-39.237-0.027  L7.243,232.71l0.25,0.726c-0.949,3.797,2.082,12.68,1.766,16.793c-0.316,4.114-0.316,15.505-0.633,17.72s-1.582,14.872-0.633,18.669  c0.949,3.797,2.603,5.755,2.603,8.919s-0.705,13.863,0.245,17.66s0,4.43,1.266,7.277C12.542,321.455,14.038,326.344,14.78,329.501" />
</svg>
