<?xml version="1.0" standalone="no"?>
<!DOCTYPE svg PUBLIC "-//W3C//DTD SVG 20010904//EN"
 "http://www.w3.org/TR/2001/REC-SVG-20010904/DTD/svg10.dtd">
<svg version="1.0" xmlns="http://www.w3.org/2000/svg"
 width="1522.000000pt" height="1077.000000pt" viewBox="0 0 1522.000000 1077.000000"
 preserveAspectRatio="xMidYMid meet">

<g transform="translate(0.000000,1077.000000) scale(0.100000,-0.100000)"
fill="#000000" stroke="none">
<path d="M12445 9143 c-191 -97 -373 -187 -710 -350 -165 -80 -433 -210 -595
-288 -162 -79 -365 -175 -450 -213 -166 -75 -598 -292 -642 -323 -14 -11 -115
-62 -224 -114 -109 -53 -236 -120 -283 -150 -48 -29 -111 -63 -141 -75 -30
-12 -132 -59 -226 -105 -95 -47 -225 -109 -290 -138 -66 -30 -146 -70 -179
-90 -108 -64 -268 -151 -355 -192 -47 -22 -114 -56 -150 -76 -36 -20 -119 -65
-185 -99 -66 -34 -145 -77 -175 -95 -30 -18 -129 -73 -220 -123 -261 -142
-554 -312 -576 -334 -8 -8 -14 -49 -15 -113 -3 -149 -2 -149 -55 -164 -48 -14
-56 -11 -114 49 -51 52 -93 81 -109 74 -9 -3 -30 -6 -47 -5 -18 1 -37 -5 -44
-15 -25 -29 -85 -52 -159 -59 -51 -5 -90 -16 -128 -36 -31 -16 -74 -32 -97
-35 -29 -5 -54 -18 -86 -48 -78 -74 -89 -78 -223 -82 -136 -4 -165 -15 -180
-73 l-8 -32 -31 20 c-31 19 -32 19 -69 0 -42 -21 -54 -35 -39 -44 5 -3 10 -31
10 -61 l0 -54 -40 0 c-34 0 -44 6 -76 45 -43 51 -87 75 -136 75 -68 0 -182 41
-293 105 -92 54 -115 73 -143 115 -18 27 -36 50 -41 50 -4 0 -25 -15 -47 -33
-38 -31 -193 -136 -284 -191 -187 -114 -236 -133 -390 -152 -211 -26 -370 -11
-442 42 -71 52 -93 63 -113 59 -11 -2 -68 -16 -126 -30 l-107 -25 -478 5 -479
5 -20 29 c-56 82 -59 91 -60 206 l0 110 -40 3 c-22 1 -71 9 -109 18 -50 11
-72 12 -80 4 -7 -7 -11 -72 -10 -190 l1 -178 -36 -7 c-20 -4 -101 -8 -180 -11
-84 -2 -175 -10 -219 -20 -59 -13 -103 -16 -196 -11 -116 6 -122 7 -143 33
l-21 27 -11 -39 c-6 -21 -18 -95 -26 -164 -32 -263 -43 -317 -84 -412 -82
-196 -103 -286 -121 -530 -9 -126 -9 -155 5 -208 19 -74 81 -247 123 -345 17
-38 47 -110 67 -159 20 -48 70 -148 110 -221 40 -73 100 -186 133 -251 52
-103 72 -132 153 -217 l94 -98 95 -9 c54 -5 137 -23 190 -40 52 -16 110 -30
128 -30 49 0 44 37 -16 95 -55 54 -69 53 133 9 66 -14 136 -29 155 -33 19 -5
63 -20 96 -34 34 -14 101 -36 150 -47 49 -12 121 -30 159 -40 90 -24 240 -58
285 -65 39 -6 112 -47 181 -103 213 -172 275 -210 310 -192 9 5 31 26 50 47
27 29 44 39 71 41 51 3 87 -13 99 -45 6 -16 37 -48 71 -73 98 -72 363 -343
389 -398 22 -46 63 -91 85 -92 6 0 16 -12 22 -26 12 -25 79 -61 155 -82 35
-10 39 -9 54 16 46 75 61 93 98 114 39 22 47 23 233 20 177 -3 196 -1 240 18
60 27 93 59 148 142 51 78 60 86 69 57 5 -16 13 -20 31 -16 13 2 24 0 24 -4 0
-5 9 -9 20 -9 11 0 20 -5 20 -11 0 -7 9 -9 22 -6 12 3 48 -3 81 -14 32 -11 64
-18 71 -16 6 3 19 -3 29 -11 14 -13 24 -13 54 -4 27 8 40 8 50 0 7 -6 16 -8
20 -5 3 4 14 2 24 -3 18 -10 67 10 197 80 57 31 51 31 162 -9 30 -11 72 -20
92 -21 62 0 255 -76 406 -159 39 -22 73 -36 76 -33 2 4 -2 54 -9 112 -7 58
-10 108 -6 112 22 25 298 -78 319 -118 5 -11 15 -50 22 -89 22 -126 25 -138
40 -145 44 -22 97 -30 189 -30 l103 0 -5 -25 c-3 -19 1 -29 16 -37 32 -17 313
-24 659 -16 326 7 368 5 368 -17 0 -7 -13 -46 -30 -86 -32 -80 -38 -144 -16
-175 18 -23 95 -25 351 -6 192 13 787 16 854 3 38 -8 58 -4 139 25 106 38 169
56 542 153 146 39 285 77 310 86 25 9 63 19 85 22 22 3 56 12 75 20 20 9 92
18 170 23 74 5 167 15 205 23 97 21 251 44 370 57 55 6 127 17 160 25 53 12
136 23 525 66 52 5 131 19 175 29 45 11 149 24 232 29 84 6 174 16 200 22 26
6 95 17 152 25 57 7 106 16 109 19 7 6 3 255 -4 266 -3 5 -4 131 -3 281 0 150
0 631 -2 1068 -3 748 -2 929 1 983 4 61 -18 596 -25 607 -10 16 -7 1121 3
1258 4 56 4 173 1 260 -4 86 -7 366 -8 622 l-1 465 92 50 c156 85 187 100 385
196 219 105 211 96 192 224 -24 163 -24 157 11 214 27 44 31 56 22 76 -12 25
-5 36 32 49 12 4 17 13 13 26 -3 10 1 24 9 31 18 15 18 29 -1 29 -8 0 -16 10
-19 23 -13 77 3 129 52 173 30 26 11 34 -23 10 -70 -48 -600 -313 -840 -420
-33 -15 -127 -60 -210 -100 -82 -41 -153 -72 -157 -70 -3 2 -14 37 -24 77 -13
58 -17 120 -16 315 0 175 -3 242 -12 242 -6 0 -69 -30 -141 -67z m141 -196 c1
-197 4 -257 19 -318 10 -40 19 -75 20 -77 1 -1 95 43 209 98 114 55 209 100
211 100 16 0 629 304 723 358 47 27 60 25 43 -6 -17 -32 -14 -127 4 -142 11
-9 13 -16 5 -24 -5 -5 -10 -17 -10 -25 0 -8 -12 -25 -27 -37 -24 -19 -26 -25
-16 -46 9 -21 7 -32 -18 -71 -39 -63 -43 -85 -25 -153 17 -66 23 -164 11 -183
-6 -11 -344 -181 -358 -181 -3 0 -63 -32 -133 -71 -71 -39 -140 -75 -153 -80
l-24 -10 2 -697 c1 -383 1 -956 -1 -1272 l-4 -575 -70 -37 c-38 -21 -100 -49
-139 -64 -104 -39 -200 -78 -295 -119 -115 -50 -282 -115 -296 -115 -27 0
-236 -75 -449 -160 -126 -51 -309 -119 -405 -151 -96 -32 -236 -83 -310 -114
-74 -31 -182 -73 -240 -94 -58 -21 -123 -47 -146 -59 -56 -29 -362 -142 -519
-192 -71 -22 -146 -48 -165 -57 -28 -12 -168 -63 -175 -63 -1 0 -1 78 -1 173
0 94 -7 370 -16 612 -9 242 -17 586 -18 765 -3 352 -5 539 -15 1401 l-6 565
88 43 c48 23 122 62 163 86 125 72 461 240 715 357 132 60 305 143 385 183 80
40 226 111 325 158 323 152 827 398 869 424 47 31 216 113 231 113 6 0 10 -88
11 -243z m-2792 -1699 c13 -1709 18 -2015 45 -2588 4 -91 6 -205 3 -253 l-4
-88 -77 -38 c-68 -35 -178 -85 -446 -203 -49 -22 -140 -66 -202 -99 -62 -32
-246 -119 -410 -193 -164 -73 -341 -154 -394 -179 -103 -49 -204 -73 -272 -64
-22 3 -117 -6 -211 -19 -191 -28 -196 -29 -356 -74 -63 -18 -266 -63 -450
-100 -298 -60 -336 -66 -341 -51 -4 9 -14 68 -24 131 -9 63 -21 134 -26 157
-5 23 -9 65 -9 93 0 50 -42 315 -59 375 -5 17 -16 84 -26 150 -22 166 -30 219
-58 385 -14 80 -28 177 -31 215 -8 77 -73 476 -111 675 -13 69 -26 157 -30
195 -4 39 -13 126 -21 195 -18 165 -18 190 2 190 9 0 44 14 77 31 44 22 83 33
137 38 76 8 100 17 154 54 18 13 47 21 76 22 45 2 51 -1 116 -62 66 -61 71
-63 109 -58 22 4 49 7 60 9 18 2 20 12 26 133 3 71 9 135 12 140 4 6 53 37
109 68 57 32 115 66 130 77 38 26 130 78 323 183 94 50 213 117 266 148 52 30
130 72 172 91 42 20 100 50 129 68 29 17 123 66 208 108 85 43 209 109 275
148 111 64 279 146 387 188 24 10 53 25 65 34 12 9 84 45 160 79 76 35 149 68
163 74 14 6 54 29 90 51 73 45 241 135 252 136 4 0 9 -258 12 -572z m-7489
-1136 l60 -7 0 -111 c0 -65 5 -116 11 -125 6 -8 21 -33 34 -57 30 -54 61 -75
92 -63 13 5 78 8 143 7 66 -2 161 -3 212 -4 l91 -2 4 -132 c3 -152 14 -179 83
-229 42 -31 62 -38 363 -144 186 -66 344 -142 562 -269 120 -70 168 -109 202
-164 19 -31 20 -43 14 -128 -5 -81 -4 -101 12 -138 21 -47 98 -111 195 -161
l58 -30 -7 -76 c-6 -73 -5 -77 18 -95 l24 -18 -32 -81 c-30 -75 -141 -315
-150 -324 -2 -2 -10 2 -19 9 -12 10 -18 10 -29 1 -12 -10 -19 -8 -35 8 -26 26
-48 27 -56 1 -8 -24 -18 -25 -50 -4 -19 12 -37 15 -69 10 -50 -8 -72 2 -230
99 -50 31 -95 54 -102 51 -17 -6 -62 -75 -114 -171 -23 -44 -60 -112 -82 -152
l-39 -71 88 -48 c48 -26 104 -56 123 -68 19 -11 60 -33 90 -47 30 -15 74 -41
98 -58 l42 -31 0 -133 c0 -158 -14 -264 -38 -290 -9 -10 -32 -25 -52 -33 -38
-16 -80 -52 -80 -68 0 -20 -94 -106 -116 -106 -29 0 -61 23 -277 193 -88 69
-155 106 -193 107 -20 0 -125 24 -264 60 -41 11 -115 29 -165 41 -49 12 -117
33 -150 46 -60 25 -107 39 -220 63 -33 7 -95 21 -139 31 -43 11 -82 19 -86 19
-19 0 6 -42 46 -79 24 -22 44 -45 44 -50 0 -23 -49 -20 -134 9 -50 17 -134 35
-194 42 l-104 13 -88 92 c-52 55 -101 119 -120 156 -127 243 -156 298 -200
376 -27 49 -66 130 -85 182 -20 52 -47 118 -61 147 -24 53 -43 103 -92 242
-25 70 -27 86 -26 235 2 239 33 387 122 585 35 78 47 132 63 270 17 157 36
291 43 297 3 3 13 0 22 -8 26 -21 275 -25 361 -6 38 9 138 18 228 21 88 2 168
8 178 11 15 6 17 25 17 192 l0 186 48 -8 c26 -4 74 -10 107 -13z m2650 -87
c52 -82 313 -215 421 -215 53 0 105 -26 149 -75 33 -36 48 -45 86 -50 l46 -7
7 56 c4 34 2 65 -4 76 -9 17 -6 22 24 36 33 16 35 16 65 -5 l31 -22 9 23 c5
13 12 31 15 40 11 37 49 48 172 51 133 3 141 6 229 87 l50 45 3 -45 c1 -25 7
-90 13 -145 5 -55 14 -140 19 -190 5 -49 21 -151 35 -225 49 -259 89 -509 84
-515 -3 -2 -26 -5 -52 -7 -26 -2 -47 -4 -47 -5 0 -2 11 -42 25 -89 22 -76 25
-105 25 -250 0 -220 -8 -256 -74 -317 -56 -52 -144 -87 -220 -87 -22 0 -68 -9
-101 -21 l-60 -21 -95 37 c-52 20 -100 41 -106 46 -7 6 -15 1 -23 -14 -7 -12
-44 -44 -82 -72 -37 -28 -85 -73 -105 -102 l-36 -52 -38 19 c-63 32 -113 36
-169 11 -44 -18 -57 -20 -124 -11 -94 12 -146 29 -194 67 -21 16 -94 63 -163
103 -69 40 -163 96 -210 125 -47 28 -94 56 -105 62 -11 5 -49 25 -85 43 -80
41 -146 94 -166 132 -11 21 -14 56 -12 136 2 104 2 109 -27 154 -19 30 -55 63
-104 97 -42 28 -79 51 -83 51 -4 0 -38 19 -75 43 -126 80 -316 169 -497 233
-271 95 -330 118 -370 149 -59 45 -67 71 -72 219 l-5 131 238 -3 c227 -3 242
-2 333 23 53 14 108 25 122 25 14 0 45 -16 69 -35 87 -69 195 -87 420 -69 149
12 214 26 289 64 90 45 151 81 225 130 44 29 105 69 135 89 30 20 70 48 88 63
18 16 36 28 41 28 4 0 21 -20 36 -45z m8119 -567 c6 -44 26 -601 22 -604 0 -1
-55 -20 -121 -44 -66 -23 -136 -50 -155 -60 -19 -10 -95 -38 -168 -64 -73 -25
-179 -64 -235 -87 -116 -47 -353 -132 -442 -159 -142 -43 -282 -97 -303 -118
-12 -12 -27 -22 -34 -22 -12 0 -194 -70 -301 -117 -32 -13 -111 -42 -175 -63
-64 -22 -175 -59 -247 -84 -71 -25 -133 -46 -137 -46 -5 0 -8 7 -8 15 0 22
-17 19 -75 -14 -28 -16 -83 -38 -121 -50 -38 -11 -114 -39 -169 -62 -55 -23
-138 -56 -185 -74 -133 -51 -243 -96 -265 -111 -33 -21 -165 -62 -241 -74 -45
-7 -95 -24 -135 -46 -97 -51 -116 -61 -214 -100 -99 -40 -185 -70 -228 -79
-19 -4 -33 -17 -45 -41 -23 -49 -76 -74 -176 -84 -45 -4 -99 -14 -121 -23
-138 -51 -133 -48 -140 -88 -4 -21 -13 -43 -20 -49 -34 -28 -229 -69 -425 -90
-47 -5 -94 -11 -105 -14 -11 -3 -86 -21 -166 -40 -80 -20 -186 -48 -235 -65
-49 -16 -122 -36 -162 -45 -40 -9 -92 -25 -115 -36 -23 -10 -80 -29 -127 -40
-47 -12 -90 -26 -96 -30 -5 -5 -35 -16 -65 -24 -31 -8 -85 -29 -120 -47 -64
-32 -184 -69 -227 -69 -12 0 -24 6 -26 13 -14 48 -47 295 -66 492 -5 50 -12
105 -15 123 -5 20 -4 32 3 32 6 0 75 14 154 30 79 17 204 42 278 56 129 24
261 55 455 108 107 29 372 66 471 66 90 0 167 15 218 41 21 11 198 92 394 180
195 88 400 184 456 214 56 29 189 92 296 140 107 48 238 106 290 130 95 42
127 54 460 167 96 32 225 78 285 100 61 23 138 52 173 64 34 13 83 34 110 48
26 13 81 35 122 49 41 14 147 56 235 92 88 37 221 86 295 109 130 41 179 60
535 201 88 35 201 75 250 90 108 32 280 96 430 160 61 26 155 64 210 84 55 21
132 54 170 74 39 20 75 36 81 37 6 0 14 -24 18 -52z m-6659 -538 c4 -6 11 -54
16 -106 5 -52 20 -161 34 -242 13 -81 29 -176 35 -212 25 -163 53 -334 70
-430 18 -101 22 -126 35 -250 4 -30 17 -122 30 -205 32 -210 53 -362 66 -485
6 -58 17 -152 26 -210 9 -58 19 -136 23 -175 5 -38 15 -131 24 -205 22 -187
26 -230 21 -230 -2 0 -52 24 -112 54 -150 76 -276 122 -354 130 -36 4 -89 18
-118 32 -67 31 -85 30 -146 -6 -27 -16 -66 -37 -85 -46 -19 -9 -43 -21 -53
-26 -12 -6 -37 -5 -71 3 -41 9 -58 9 -75 -1 -19 -10 -26 -9 -41 5 -11 10 -26
15 -34 12 -8 -3 -37 3 -65 14 -28 10 -62 19 -76 19 -13 0 -26 4 -30 10 -3 5
-12 7 -20 3 -8 -3 -15 0 -15 7 0 8 -9 10 -25 6 -18 -5 -25 -2 -25 8 0 7 -6 19
-13 25 -16 12 -35 -6 -82 -79 -42 -65 -84 -109 -130 -133 -38 -21 -51 -22
-235 -19 -194 3 -195 3 -245 -23 -51 -27 -68 -46 -95 -99 -13 -26 -21 -31 -46
-29 -51 4 -143 50 -156 78 -6 14 -18 25 -27 25 -22 0 -56 38 -74 82 -26 63
-315 356 -420 426 -20 14 -40 35 -43 48 -8 32 -46 54 -94 54 -22 0 -40 4 -40
9 0 16 33 43 75 62 23 10 48 26 57 36 25 28 37 106 43 275 l5 156 -35 29 c-19
16 -70 48 -113 70 -105 55 -286 154 -292 159 -2 3 2 15 9 27 8 11 46 80 86
152 103 186 108 195 124 195 8 0 75 -36 148 -80 132 -79 135 -80 174 -70 35
10 45 8 77 -10 l36 -22 16 22 c17 23 50 19 50 -6 0 -17 22 -18 37 -3 8 8 17 8
32 -1 20 -10 25 -4 82 117 61 128 129 287 129 302 0 4 -12 13 -26 20 -26 11
-26 13 -19 84 4 39 9 74 11 76 2 2 27 -12 56 -31 29 -19 80 -50 113 -68 131
-73 279 -164 309 -191 34 -30 113 -54 214 -65 54 -6 70 -3 112 16 l49 23 63
-22 c35 -12 70 -24 79 -27 11 -4 26 9 47 41 17 26 70 79 118 117 78 63 89 68
113 59 14 -5 61 -23 104 -40 l79 -30 45 20 c24 10 64 19 89 19 70 0 178 39
239 87 76 60 85 95 86 328 0 136 -4 193 -16 235 -28 97 -28 98 -8 103 33 9 62
7 68 -3z m6680 -522 c4 -244 6 -659 4 -923 -2 -264 -2 -597 1 -740 2 -143 4
-307 4 -365 l1 -105 -50 -8 c-27 -4 -104 -17 -170 -27 -66 -11 -183 -24 -260
-30 -77 -6 -176 -19 -220 -30 -44 -10 -132 -24 -195 -30 -63 -6 -161 -18 -217
-26 -56 -8 -121 -14 -145 -14 -24 0 -66 -6 -94 -14 -29 -7 -89 -19 -135 -25
-266 -35 -395 -54 -402 -58 -16 -10 -205 -32 -274 -33 -48 0 -91 -7 -125 -20
-29 -11 -62 -20 -74 -20 -11 0 -47 -9 -80 -21 -54 -18 -134 -40 -539 -144
-160 -42 -266 -74 -345 -105 -50 -20 -62 -21 -155 -12 -127 13 -640 8 -850 -7
-174 -13 -280 -15 -294 -7 -5 3 -12 25 -15 48 -5 34 0 58 24 117 32 78 38 120
18 122 -7 1 -233 2 -503 3 -269 1 -498 5 -507 10 -11 5 -18 19 -18 37 0 35 -6
37 -162 42 -72 2 -122 8 -131 15 -8 7 -18 38 -22 70 -11 88 -33 166 -53 180
-58 45 -238 112 -299 112 -25 0 -28 13 -38 133 l-7 77 32 0 c52 0 144 28 232
70 45 22 90 40 100 40 11 0 38 9 61 21 23 11 80 29 127 40 47 11 95 27 107 35
13 8 62 24 110 35 49 11 121 31 161 45 123 42 392 106 482 114 215 20 441 74
473 111 9 12 17 34 17 49 0 18 6 30 18 33 9 3 49 17 87 31 39 14 107 30 153
36 97 11 152 38 175 85 13 28 24 34 82 49 37 9 88 27 114 40 25 13 75 33 111
45 36 12 94 39 130 61 68 39 155 70 200 70 31 0 194 54 227 75 23 15 55 29
238 100 61 23 160 63 222 88 62 25 137 52 167 61 29 9 73 27 97 41 50 28 66
31 71 11 2 -12 41 -2 178 45 96 34 202 69 235 78 33 10 98 34 145 54 47 20
146 59 220 87 74 28 142 59 150 68 8 9 119 52 245 94 302 102 405 139 490 176
39 17 132 51 208 77 76 26 171 62 210 79 40 18 101 43 137 55 36 12 72 26 80
31 8 5 18 10 21 10 3 0 10 -199 14 -442z"/>
</g>
</svg>
